<svg width="45" height="45" viewBox="0 0 45 45" fill="none" xmlns="http://www.w3.org/2000/svg">
<circle cx="22.5" cy="22.5" r="22.5" fill="white"/>
<rect x="14.0002" y="26.0783" width="4.41176" height="4.31373" rx="2" fill="#D9D9D9"/>
<rect x="14.0002" y="26.0783" width="4.41176" height="4.31373" rx="2" fill="#D9D9D9"/>
<rect x="14.0002" y="26.0783" width="4.41176" height="4.31373" rx="2" fill="#D9D9D9"/>
<rect x="14.0002" y="26.0783" width="4.41176" height="4.31373" rx="2" fill="#D9D9D9"/>
<rect x="14.0002" y="26.0783" width="4.41176" height="4.31373" rx="2" fill="#D9D9D9"/>
<rect x="14.0002" y="26.0783" width="4.41176" height="4.31373" rx="2" fill="black"/>
<rect x="20.1765" y="26.0781" width="4.41176" height="4.31373" rx="2" fill="#D9D9D9"/>
<rect x="20.1765" y="26.0781" width="4.41176" height="4.31373" rx="2" fill="#D9D9D9"/>
<rect x="20.1765" y="26.0781" width="4.41176" height="4.31373" rx="2" fill="#D9D9D9"/>
<rect x="20.1765" y="26.0781" width="4.41176" height="4.31373" rx="2" fill="#D9D9D9"/>
<rect x="20.1765" y="26.0781" width="4.41176" height="4.31373" rx="2" fill="#D9D9D9"/>
<rect x="20.1765" y="26.0781" width="4.41176" height="4.31373" rx="2" fill="black"/>
<rect x="26.3529" y="26.0781" width="4.41176" height="4.31373" rx="2" fill="#D9D9D9"/>
<rect x="26.3529" y="26.0781" width="4.41176" height="4.31373" rx="2" fill="#D9D9D9"/>
<rect x="26.3529" y="26.0781" width="4.41176" height="4.31373" rx="2" fill="#D9D9D9"/>
<rect x="26.3529" y="26.0781" width="4.41176" height="4.31373" rx="2" fill="#D9D9D9"/>
<rect x="26.3529" y="26.0781" width="4.41176" height="4.31373" rx="2" fill="#D9D9D9"/>
<rect x="26.3529" y="26.0781" width="4.41176" height="4.31373" rx="2" fill="black"/>
<rect x="14.0002" y="20.0393" width="4.41176" height="4.31373" rx="2" fill="#D9D9D9"/>
<rect x="14.0002" y="20.0393" width="4.41176" height="4.31373" rx="2" fill="#D9D9D9"/>
<rect x="14.0002" y="20.0393" width="4.41176" height="4.31373" rx="2" fill="#D9D9D9"/>
<rect x="14.0002" y="20.0393" width="4.41176" height="4.31373" rx="2" fill="#D9D9D9"/>
<rect x="14.0002" y="20.0393" width="4.41176" height="4.31373" rx="2" fill="#D9D9D9"/>
<rect x="14.0002" y="20.0393" width="4.41176" height="4.31373" rx="2" fill="black"/>
<rect x="20.1765" y="20.0391" width="4.41176" height="4.31373" rx="2" fill="#D9D9D9"/>
<rect x="20.1765" y="20.0391" width="4.41176" height="4.31373" rx="2" fill="#D9D9D9"/>
<rect x="20.1765" y="20.0391" width="4.41176" height="4.31373" rx="2" fill="#D9D9D9"/>
<rect x="20.1765" y="20.0391" width="4.41176" height="4.31373" rx="2" fill="#D9D9D9"/>
<rect x="20.1765" y="20.0391" width="4.41176" height="4.31373" rx="2" fill="#D9D9D9"/>
<rect x="20.1765" y="20.0391" width="4.41176" height="4.31373" rx="2" fill="black"/>
<rect x="26.3529" y="20.0391" width="4.41176" height="4.31373" rx="2" fill="#D9D9D9"/>
<rect x="26.3529" y="20.0391" width="4.41176" height="4.31373" rx="2" fill="#D9D9D9"/>
<rect x="26.3529" y="20.0391" width="4.41176" height="4.31373" rx="2" fill="#D9D9D9"/>
<rect x="26.3529" y="20.0391" width="4.41176" height="4.31373" rx="2" fill="#D9D9D9"/>
<rect x="26.3529" y="20.0391" width="4.41176" height="4.31373" rx="2" fill="#D9D9D9"/>
<rect x="26.3529" y="20.0391" width="4.41176" height="4.31373" rx="2" fill="black"/>
<rect x="14.0002" y="14" width="4.41176" height="4.31373" rx="2" fill="#D9D9D9"/>
<rect x="14.0002" y="14" width="4.41176" height="4.31373" rx="2" fill="#D9D9D9"/>
<rect x="14.0002" y="14" width="4.41176" height="4.31373" rx="2" fill="#D9D9D9"/>
<rect x="14.0002" y="14" width="4.41176" height="4.31373" rx="2" fill="#D9D9D9"/>
<rect x="14.0002" y="14" width="4.41176" height="4.31373" rx="2" fill="#D9D9D9"/>
<rect x="14.0002" y="14" width="4.41176" height="4.31373" rx="2" fill="black"/>
<rect x="20.1765" y="14" width="4.41176" height="4.31373" rx="2" fill="#D9D9D9"/>
<rect x="20.1765" y="14" width="4.41176" height="4.31373" rx="2" fill="#D9D9D9"/>
<rect x="20.1765" y="14" width="4.41176" height="4.31373" rx="2" fill="#D9D9D9"/>
<rect x="20.1765" y="14" width="4.41176" height="4.31373" rx="2" fill="#D9D9D9"/>
<rect x="20.1765" y="14" width="4.41176" height="4.31373" rx="2" fill="#D9D9D9"/>
<rect x="20.1765" y="14" width="4.41176" height="4.31373" rx="2" fill="black"/>
<rect x="26.3529" y="14" width="4.41176" height="4.31373" rx="2" fill="#D9D9D9"/>
<rect x="26.3529" y="14" width="4.41176" height="4.31373" rx="2" fill="#D9D9D9"/>
<rect x="26.3529" y="14" width="4.41176" height="4.31373" rx="2" fill="#D9D9D9"/>
<rect x="26.3529" y="14" width="4.41176" height="4.31373" rx="2" fill="#D9D9D9"/>
<rect x="26.3529" y="14" width="4.41176" height="4.31373" rx="2" fill="#D9D9D9"/>
<rect x="26.3529" y="14" width="4.41176" height="4.31373" rx="2" fill="black"/>
</svg>
