<svg width="77" height="77" viewBox="0 0 77 77" fill="none" xmlns="http://www.w3.org/2000/svg">
<g filter="url(#filter0_b_1_2650)">
<path d="M72.0887 42.6495C69.6771 61.3916 52.562 74.6345 33.861 72.2282C15.1602 69.8219 1.955 52.6777 4.3666 33.9355C6.77817 15.1935 23.8933 1.95069 42.5941 4.35696C61.2951 6.76325 74.5002 23.9075 72.0887 42.6495Z" fill="url(#paint0_linear_1_2650)" fill-opacity="0.8"/>
<path d="M33.7972 72.7241C52.7731 75.1658 70.1379 61.7283 72.5846 42.7133C75.0313 23.6984 61.6338 6.30272 42.6579 3.86105C23.6822 1.4194 6.31737 14.8569 3.87068 33.8717C1.42398 52.8867 14.8214 70.2824 33.7972 72.7241Z" stroke="url(#paint1_radial_1_2650)" stroke-opacity="0.46"/>
<path d="M33.7972 72.7241C52.7731 75.1658 70.1379 61.7283 72.5846 42.7133C75.0313 23.6984 61.6338 6.30272 42.6579 3.86105C23.6822 1.4194 6.31737 14.8569 3.87068 33.8717C1.42398 52.8867 14.8214 70.2824 33.7972 72.7241Z" stroke="url(#paint2_radial_1_2650)" stroke-opacity="0.33"/>
<path d="M33.7972 72.7241C52.7731 75.1658 70.1379 61.7283 72.5846 42.7133C75.0313 23.6984 61.6338 6.30272 42.6579 3.86105C23.6822 1.4194 6.31737 14.8569 3.87068 33.8717C1.42398 52.8867 14.8214 70.2824 33.7972 72.7241Z" stroke="url(#paint3_radial_1_2650)"/>
</g>
<path d="M25.8665 26.4014L26.8658 26.4007L33.2927 26.3963L34.2934 26.3956V27.3963V27.6942C34.2934 28.1595 34.2933 28.6248 34.2932 29.0899C34.2928 31.0424 34.2923 32.9929 34.2995 34.9435C36.262 36.9293 38.2298 38.9102 40.2028 40.8861C40.3684 41.0417 40.4992 41.2303 40.5871 41.4395C40.6763 41.6518 40.7193 41.8805 40.7134 42.1104C40.707 43.8057 40.7075 45.5006 40.7079 47.1979C40.7081 47.6416 40.7082 48.0854 40.7082 48.5294V48.9075V49.9075H39.7082H39.4665H39.4657C35.3435 49.9043 31.2215 49.9066 27.0997 49.9143L25.8665 26.4014ZM25.8665 26.4014V27.4007M25.8665 26.4014V27.4007M25.8665 27.4007V27.719M25.8665 27.4007V27.719M49.2569 49.8469L48.3086 49.896C48.3023 49.8963 48.2916 49.897 48.2778 49.8978C48.2246 49.9012 48.1252 49.9074 48.0539 49.908L48.0464 49.908C47.5009 49.9081 46.9559 49.908 46.4112 49.9078C44.9833 49.9074 43.5575 49.907 42.1309 49.9119L49.2569 49.8469ZM49.2569 49.8469V48.8973M49.2569 49.8469V48.8973M49.2569 48.8973V27.4065V26.4065M49.2569 48.8973V26.4065M49.2569 26.4065H48.2569M49.2569 26.4065H48.2569M48.2569 26.4065H35.4505H34.5234M48.2569 26.4065H34.5234M34.5234 26.4065L34.4534 27.331M34.5234 26.4065L34.4534 27.331M34.4534 27.331C34.4527 27.3403 34.4522 27.345 34.4511 27.3555C34.4505 27.3623 34.4495 27.3715 34.4481 27.386C34.4455 27.4132 34.4399 27.4728 34.4399 27.5428C34.4399 29.8104 34.4416 32.0776 34.4452 34.3446L34.4452 34.3696M34.4534 27.331L34.4452 34.3696M34.4452 34.3696L34.4465 34.3947M34.4452 34.3696L34.4465 34.3947M34.4465 34.3947C34.4635 34.7233 34.5961 35.0363 34.8222 35.2773L34.8321 35.2879M34.4465 34.3947L34.8321 35.2879M34.8321 35.2879L34.8423 35.2981M34.8321 35.2879L34.8423 35.2981M34.8423 35.2981C36.8414 37.3094 38.8443 39.3167 40.851 41.32M34.8423 35.2981L40.851 41.32M40.851 41.32C40.8469 42.5281 40.8463 43.7359 40.8457 44.9419C40.8451 46.1726 40.8445 47.4016 40.8402 48.6305V48.634C40.8402 48.7799 40.8445 49.2525 41.2346 49.6036C41.5826 49.9169 42.0093 49.913 42.1211 49.912C42.1247 49.9119 42.1279 49.9119 42.1308 49.9119L40.851 41.32ZM25.8665 27.719V27.7298M25.8665 27.719V27.7298M25.8665 27.7298V27.7406M25.8665 27.7298V27.7406M25.8665 27.7406V27.7515M25.8665 27.7406V27.7515M25.8665 27.7515V27.7623M25.8665 27.7515V27.7623M25.8665 27.7623V27.7731M25.8665 27.7623V27.7731M25.8665 27.7731V27.7839M25.8665 27.7731V27.7839M25.8665 27.7839V27.7947M25.8665 27.7839V27.7947M25.8665 27.7947V27.8055M25.8665 27.7947V27.8055M25.8665 27.8055V27.8163M25.8665 27.8055V27.8163M25.8665 27.8163V27.8271M25.8665 27.8163V27.8271M25.8665 27.8271V27.838M25.8665 27.8271V27.838M25.8665 27.838V27.8488M25.8665 27.838V27.8488M25.8665 27.8488V27.8596M25.8665 27.8488V27.8596M25.8665 27.8596V27.8704M25.8665 27.8596V27.8704M25.8665 27.8704V27.8812M25.8665 27.8704V27.8812M25.8665 27.8812V27.892M25.8665 27.8812V27.892M25.8665 27.892V27.9028M25.8665 27.892V27.9028M25.8665 27.9028V27.9137M25.8665 27.9028V27.9137M25.8665 27.9137V27.9245M25.8665 27.9137V27.9245M25.8665 27.9245V27.9353M25.8665 27.9245V27.9353M25.8665 27.9353V27.9461M25.8665 27.9353V27.9461M25.8665 27.9461V27.9569M25.8665 27.9461V27.9569M25.8665 27.9569V27.9677M25.8665 27.9569V27.9677M25.8665 27.9677V27.9785M25.8665 27.9677V27.9785M25.8665 27.9785V27.9894M25.8665 27.9785V27.9894M25.8665 27.9894V28.0002M25.8665 27.9894V28.0002M25.8665 28.0002V28.011M25.8665 28.0002V28.011M25.8665 28.011V28.0218M25.8665 28.011V28.0218M25.8665 28.0218V28.0326M25.8665 28.0218V28.0326M25.8665 28.0326V28.0434M25.8665 28.0326V28.0434M25.8665 28.0434V28.0542M25.8665 28.0434V28.0542M25.8665 28.0542V28.0651M25.8665 28.0542V28.0651M25.8665 28.0651V28.0759M25.8665 28.0651V28.0759M25.8665 28.0759V28.0867M25.8665 28.0759V28.0867M25.8665 28.0867V28.0975M25.8665 28.0867V28.0975M25.8665 28.0975V28.1083M25.8665 28.0975V28.1083M25.8665 28.1083V28.1191M25.8665 28.1083V28.1191M25.8665 28.1191V28.1299M25.8665 28.1191V28.1299M25.8665 28.1299V28.1408M25.8665 28.1299V28.1408M25.8665 28.1408V28.1516M25.8665 28.1408V28.1516M25.8665 28.1516V28.1624M25.8665 28.1516V28.1624M25.8665 28.1624V28.1732M25.8665 28.1624V28.1732M25.8665 28.1732V28.184M25.8665 28.1732V28.184M25.8665 28.184V28.1948M25.8665 28.184V28.1948M25.8665 28.1948V28.2056M25.8665 28.1948V28.2056M25.8665 28.2056V28.2165M25.8665 28.2056V28.2165M25.8665 28.2165V28.2273M25.8665 28.2165V28.2273M25.8665 28.2273V28.2381M25.8665 28.2273V28.2381M25.8665 28.2381V28.2489M25.8665 28.2381V28.2489M25.8665 28.2489V28.2597M25.8665 28.2489V28.2597M25.8665 28.2597V28.2705M25.8665 28.2597V28.2705M25.8665 28.2705V28.2813M25.8665 28.2705V28.2813M25.8665 28.2813V28.2922M25.8665 28.2813V28.2922M25.8665 28.2922V28.303M25.8665 28.2922V28.303M25.8665 28.303V28.3138M25.8665 28.303V28.3138M25.8665 28.3138V28.3246M25.8665 28.3138V28.3246M25.8665 28.3246V28.3354M25.8665 28.3246V28.3354M25.8665 28.3354V28.3462M25.8665 28.3354V28.3462M25.8665 28.3462V28.357M25.8665 28.3462V28.357M25.8665 28.357V28.3678M25.8665 28.357V28.3678M25.8665 28.3678V28.3787M25.8665 28.3678V28.3787M25.8665 28.3787V28.3895M25.8665 28.3787V28.3895M25.8665 28.3895V28.4003M25.8665 28.3895V28.4003M25.8665 28.4003V28.4111M25.8665 28.4003V28.4111M25.8665 28.4111V28.4219M25.8665 28.4111V28.4219M25.8665 28.4219V28.4327M25.8665 28.4219V28.4327M25.8665 28.4327V28.4435M25.8665 28.4327V28.4435M25.8665 28.4435V28.4544M25.8665 28.4435V28.4544M25.8665 28.4544V28.4652M25.8665 28.4544V28.4652M25.8665 28.4652V28.476M25.8665 28.4652V28.476M25.8665 28.476V28.4868M25.8665 28.476V28.4868M25.8665 28.4868V28.4976M25.8665 28.4868V28.4976M25.8665 28.4976V28.5084M25.8665 28.4976V28.5084M25.8665 28.5084V28.5192M25.8665 28.5084V28.5192M25.8665 28.5192V28.5301M25.8665 28.5192V28.5301M25.8665 28.5301V28.5409M25.8665 28.5301V28.5409M25.8665 28.5409V28.5517M25.8665 28.5409V28.5517M25.8665 28.5517V28.5625M25.8665 28.5517V28.5625M25.8665 28.5625V28.5733M25.8665 28.5625V28.5733M25.8665 28.5733V28.5841M25.8665 28.5733V28.5841M25.8665 28.5841V28.5949M25.8665 28.5841V28.5949M25.8665 28.5949V28.6058M25.8665 28.5949V28.6058M25.8665 28.6058V28.6166M25.8665 28.6058V28.6166M25.8665 28.6166V28.6274M25.8665 28.6166V28.6274M25.8665 28.6274V28.6382M25.8665 28.6274V28.6382M25.8665 28.6382V28.649M25.8665 28.6382V28.649M25.8665 28.649V28.6598M25.8665 28.649V28.6598M25.8665 28.6598V28.6706M25.8665 28.6598V28.6706M25.8665 28.6706V28.6815M25.8665 28.6706V28.6815M25.8665 28.6815V28.6923M25.8665 28.6815V28.6923M25.8665 28.6923V28.7031M25.8665 28.6923V28.7031M25.8665 28.7031V28.7139M25.8665 28.7031V28.7139M25.8665 28.7139V28.7247M25.8665 28.7139V28.7247M25.8665 28.7247V28.7355M25.8665 28.7247V28.7355M25.8665 28.7355V28.7463M25.8665 28.7355V28.7463M25.8665 28.7463V28.7572M25.8665 28.7463V28.7572M25.8665 28.7572V28.768M25.8665 28.7572V28.768M25.8665 28.768V28.7788M25.8665 28.768V28.7788M25.8665 28.7788V28.7896M25.8665 28.7788V28.7896M25.8665 28.7896V28.8004M25.8665 28.7896V28.8004M25.8665 28.8004V28.8112M25.8665 28.8004V28.8112M25.8665 28.8112V28.822M25.8665 28.8112V28.822M25.8665 28.822V28.8329M25.8665 28.822V28.8329M25.8665 28.8329V28.8437M25.8665 28.8329V28.8437M25.8665 28.8437V28.8545M25.8665 28.8437V28.8545M25.8665 28.8545V28.8653M25.8665 28.8545V28.8653M25.8665 28.8653V28.8761M25.8665 28.8653V28.8761M25.8665 28.8761V28.8869M25.8665 28.8761V28.8869M25.8665 28.8869V28.8977M25.8665 28.8869V28.8977M25.8665 28.8977V28.9086M25.8665 28.8977V28.9086M25.8665 28.9086V28.9194M25.8665 28.9086V28.9194M25.8665 28.9194V28.9302M25.8665 28.9194V28.9302M25.8665 28.9302V28.941M25.8665 28.9302V28.941M25.8665 28.941V28.9518M25.8665 28.941V28.9518M25.8665 28.9518V28.9626M25.8665 28.9518V28.9626M25.8665 28.9626V28.9734M25.8665 28.9626V28.9734M25.8665 28.9734V28.9843M25.8665 28.9734V28.9843M25.8665 28.9843V28.9951M25.8665 28.9843V28.9951M25.8665 28.9951V29.0059M25.8665 28.9951V29.0059M25.8665 29.0059V29.0167M25.8665 29.0059V29.0167M25.8665 29.0167V29.0275M25.8665 29.0167V29.0275M25.8665 29.0275V29.0383M25.8665 29.0275V29.0383M25.8665 29.0383V29.0491M25.8665 29.0383V29.0491M25.8665 29.0491V29.06M25.8665 29.0491V29.06M25.8665 29.06V29.0708M25.8665 29.06V29.0708M25.8665 29.0708V29.0816M25.8665 29.0708V29.0816M25.8665 29.0816V29.0924M25.8665 29.0816V29.0924M25.8665 29.0924V29.1032M25.8665 29.0924V29.1032M25.8665 29.1032V29.114M25.8665 29.1032V29.114M25.8665 29.114V29.1248M25.8665 29.114V29.1248M25.8665 29.1248V29.1357M25.8665 29.1248V29.1357M25.8665 29.1357V29.1465M25.8665 29.1357V29.1465M25.8665 29.1465V29.1573M25.8665 29.1465V29.1573M25.8665 29.1573V29.1681M25.8665 29.1573V29.1681M25.8665 29.1681V29.1789M25.8665 29.1681V29.1789M25.8665 29.1789V29.1897M25.8665 29.1789V29.1897M25.8665 29.1897V29.2005M25.8665 29.1897V29.2005M25.8665 29.2005V29.2114M25.8665 29.2005V29.2114M25.8665 29.2114V29.2222M25.8665 29.2114V29.2222M25.8665 29.2222V29.233M25.8665 29.2222V29.233M25.8665 29.233V29.2438M25.8665 29.233V29.2438M25.8665 29.2438V29.2546M25.8665 29.2438V29.2546M25.8665 29.2546V29.2654M25.8665 29.2546V29.2654M25.8665 29.2654V29.2762M25.8665 29.2654V29.2762M25.8665 29.2762V29.2871M25.8665 29.2762V29.2871M25.8665 29.2871V29.2979M25.8665 29.2871V29.2979M25.8665 29.2979V29.3087M25.8665 29.2979V29.3087M25.8665 29.3087V29.3195M25.8665 29.3087V29.3195M25.8665 29.3195V29.3303M25.8665 29.3195V29.3303M25.8665 29.3303V29.3411M25.8665 29.3303V29.3411M25.8665 29.3411V29.3519M25.8665 29.3411V29.3519M25.8665 29.3519V29.3628M25.8665 29.3519V29.3628M25.8665 29.3628V29.3736M25.8665 29.3628V29.3736M25.8665 29.3736V29.3844M25.8665 29.3736V29.3844M25.8665 29.3844V29.3952M25.8665 29.3844V29.3952M25.8665 29.3952V29.406M25.8665 29.3952V29.406M25.8665 29.406V29.4168M25.8665 29.406V29.4168M25.8665 29.4168V29.4276M25.8665 29.4168V29.4276M25.8665 29.4276V29.4385M25.8665 29.4276V29.4385M25.8665 29.4385V29.4493M25.8665 29.4385V29.4493M25.8665 29.4493V29.4601M25.8665 29.4493V29.4601M25.8665 29.4601V29.4709M25.8665 29.4601V29.4709M25.8665 29.4709V29.4817M25.8665 29.4709V29.4817M25.8665 29.4817V29.4925M25.8665 29.4817V29.4925M25.8665 29.4925V29.5034M25.8665 29.4925V29.5034M25.8665 29.5034V29.5142M25.8665 29.5034V29.5142M25.8665 29.5142V29.525M25.8665 29.5142V29.525M25.8665 29.525V29.5358M25.8665 29.525V29.5358M25.8665 29.5358V29.5466M25.8665 29.5358V29.5466M25.8665 29.5466V29.5574M25.8665 29.5466V29.5574M25.8665 29.5574V29.5682M25.8665 29.5574V29.5682M25.8665 29.5682V29.5791M25.8665 29.5682V29.5791M25.8665 29.5791V29.5899M25.8665 29.5791V29.5899M25.8665 29.5899V29.6007M25.8665 29.5899V29.6007M25.8665 29.6007V29.6115M25.8665 29.6007V29.6115M25.8665 29.6115V29.6223M25.8665 29.6115V29.6223M25.8665 29.6223V29.6331M25.8665 29.6223V29.6331M25.8665 29.6331V29.6439M25.8665 29.6331V29.6439M25.8665 29.6439V29.6548M25.8665 29.6439V29.6548M25.8665 29.6548V29.6656M25.8665 29.6548V29.6656M25.8665 29.6656V29.6764M25.8665 29.6656V29.6764M25.8665 29.6764V29.6872M25.8665 29.6764V29.6872M25.8665 29.6872V29.698M25.8665 29.6872V29.698M25.8665 29.698V29.7088M25.8665 29.698V29.7088M25.8665 29.7088V29.7196M25.8665 29.7088V29.7196M25.8665 29.7196V29.7305M25.8665 29.7196V29.7305M25.8665 29.7305V29.7413M25.8665 29.7305V29.7413M25.8665 29.7413V29.7521M25.8665 29.7413V29.7521M25.8665 29.7521V29.7629M25.8665 29.7521V29.7629M25.8665 29.7629V29.7737M25.8665 29.7629V29.7737M25.8665 29.7737V29.7845M25.8665 29.7737V29.7845M25.8665 29.7845V29.7953M25.8665 29.7845V29.7953M25.8665 29.7953V29.8062M25.8665 29.7953V29.8062M25.8665 29.8062V29.817M25.8665 29.8062V29.817M25.8665 29.817V29.8278M25.8665 29.817V29.8278M25.8665 29.8278V29.8386M25.8665 29.8278V29.8386M25.8665 29.8386V29.8494M25.8665 29.8386V29.8494M25.8665 29.8494V29.8602M25.8665 29.8494V29.8602M25.8665 29.8602V29.871M25.8665 29.8602V29.871M25.8665 29.871V29.8819M25.8665 29.871V29.8819M25.8665 29.8819V29.8927M25.8665 29.8819V29.8927M25.8665 29.8927V29.9035M25.8665 29.8927V29.9035M25.8665 29.9035V29.9143M25.8665 29.9035V29.9143M25.8665 29.9143V29.9251M25.8665 29.9143V29.9251M25.8665 29.9251V29.9359M25.8665 29.9251V29.9359M25.8665 29.9359V29.9467M25.8665 29.9359V29.9467M25.8665 29.9467V29.9576M25.8665 29.9467V29.9576M25.8665 29.9576V29.9684M25.8665 29.9576V29.9684M25.8665 29.9684V29.9792M25.8665 29.9684V29.9792M25.8665 29.9792V29.99M25.8665 29.9792V29.99M25.8665 29.99V30.0008M25.8665 29.99V30.0008M25.8665 30.0008V30.0116M25.8665 30.0008V30.0116M25.8665 30.0116V30.0225M25.8665 30.0116V30.0225M25.8665 30.0225V30.0333M25.8665 30.0225V30.0333M25.8665 30.0333V30.0441M25.8665 30.0333V30.0441M25.8665 30.0441V30.0549M25.8665 30.0441V30.0549M25.8665 30.0549V30.0657M25.8665 30.0549V30.0657M25.8665 30.0657V30.0765M25.8665 30.0657V30.0765M25.8665 30.0765V30.0873M25.8665 30.0765V30.0873M25.8665 30.0873V30.0982M25.8665 30.0873V30.0982M25.8665 30.0982V30.109M25.8665 30.0982V30.109M25.8665 30.109V30.1198M25.8665 30.109V30.1198M25.8665 30.1198V30.1306M25.8665 30.1198V30.1306M25.8665 30.1306V30.1414M25.8665 30.1306V30.1414M25.8665 30.1414V30.1522M25.8665 30.1414V30.1522M25.8665 30.1522V30.163M25.8665 30.1522V30.163M25.8665 30.163V30.1739M25.8665 30.163V30.1739M25.8665 30.1739V30.1847M25.8665 30.1739V30.1847M25.8665 30.1847V30.1955M25.8665 30.1847V30.1955M25.8665 30.1955V30.2063M25.8665 30.1955V30.2063M25.8665 30.2063V30.2171M25.8665 30.2063V30.2171M25.8665 30.2171V30.2279M25.8665 30.2171V30.2279M25.8665 30.2279V30.2387M25.8665 30.2279V30.2387M25.8665 30.2387V30.2496M25.8665 30.2387V30.2496M25.8665 30.2496V30.2604M25.8665 30.2496V30.2604M25.8665 30.2604V30.2712M25.8665 30.2604V30.2712M25.8665 30.2712V30.282M25.8665 30.2712V30.282M25.8665 30.282V30.2928M25.8665 30.282V30.2928M25.8665 30.2928V30.3036M25.8665 30.2928V30.3036M25.8665 30.3036V30.3144M25.8665 30.3036V30.3144M25.8665 30.3144V30.3253M25.8665 30.3144V30.3253M25.8665 30.3253V30.3361M25.8665 30.3253V30.3361M25.8665 30.3361V30.3469M25.8665 30.3361V30.3469M25.8665 30.3469V30.3577M25.8665 30.3469V30.3577M25.8665 30.3577V30.3685M25.8665 30.3577V30.3685M25.8665 30.3685V30.3793M25.8665 30.3685V30.3793M25.8665 30.3793V30.3902M25.8665 30.3793V30.3902M25.8665 30.3902V30.401M25.8665 30.3902V30.401M25.8665 30.401V30.4118M25.8665 30.401V30.4118M25.8665 30.4118V30.4226M25.8665 30.4118V30.4226M25.8665 30.4226V30.4334M25.8665 30.4226V30.4334M25.8665 30.4334V30.4442M25.8665 30.4334V30.4442M25.8665 30.4442V30.455M25.8665 30.4442V30.455M25.8665 30.455V30.4659M25.8665 30.455V30.4659M25.8665 30.4659V30.4767M25.8665 30.4659V30.4767M25.8665 30.4767V30.4875M25.8665 30.4767V30.4875M25.8665 30.4875V30.4983M25.8665 30.4875V30.4983M25.8665 30.4983V30.5091M25.8665 30.4983V30.5091M25.8665 30.5091V30.5199M25.8665 30.5091V30.5199M25.8665 30.5199V30.5307M25.8665 30.5199V30.5307M25.8665 30.5307V30.5416M25.8665 30.5307V30.5416M25.8665 30.5416V30.5524M25.8665 30.5416V30.5524M25.8665 30.5524V30.5632M25.8665 30.5524V30.5632M25.8665 30.5632V30.574M25.8665 30.5632V30.574M25.8665 30.574V30.5848M25.8665 30.574V30.5848M25.8665 30.5848V30.5956M25.8665 30.5848V30.5956M25.8665 30.5956V30.6064M25.8665 30.5956V30.6064M25.8665 30.6064V30.6173M25.8665 30.6064V30.6173M25.8665 30.6173V30.6281M25.8665 30.6173V30.6281M25.8665 30.6281V30.6389M25.8665 30.6281V30.6389M25.8665 30.6389V30.6497M25.8665 30.6389V30.6497M25.8665 30.6497V30.6605M25.8665 30.6497V30.6605M25.8665 30.6605V30.6713M25.8665 30.6605V30.6713M25.8665 30.6713V30.6822M25.8665 30.6713V30.6822M25.8665 30.6822V30.693M25.8665 30.6822V30.693M25.8665 30.693V30.7038M25.8665 30.693V30.7038M25.8665 30.7038V30.7146M25.8665 30.7038V30.7146M25.8665 30.7146V30.7254M25.8665 30.7146V30.7254M25.8665 30.7254V30.7362M25.8665 30.7254V30.7362M25.8665 30.7362V30.747M25.8665 30.7362V30.747M25.8665 30.747V30.7579M25.8665 30.747V30.7579M25.8665 30.7579V30.7687M25.8665 30.7579V30.7687M25.8665 30.7687V30.7795M25.8665 30.7687V30.7795M25.8665 30.7795V30.7903M25.8665 30.7795V30.7903M25.8665 30.7903V30.8011M25.8665 30.7903V30.8011M25.8665 30.8011V30.8119M25.8665 30.8011V30.8119M25.8665 30.8119V30.8227M25.8665 30.8119V30.8227M25.8665 30.8227V30.8336M25.8665 30.8227V30.8336M25.8665 30.8336V30.8444M25.8665 30.8336V30.8444M25.8665 30.8444V30.8552M25.8665 30.8444V30.8552M25.8665 30.8552V30.866M25.8665 30.8552V30.866M25.8665 30.866V30.8768M25.8665 30.866V30.8768M25.8665 30.8768V30.8876M25.8665 30.8768V30.8876M25.8665 30.8876V30.8985M25.8665 30.8876V30.8985M25.8665 30.8985V30.9093M25.8665 30.8985V30.9093M25.8665 30.9093V30.9201M25.8665 30.9093V30.9201M25.8665 30.9201V30.9309M25.8665 30.9201V30.9309M25.8665 30.9309V30.9417M25.8665 30.9309V30.9417M25.8665 30.9417V30.9525M25.8665 30.9417V30.9525M25.8665 30.9525V30.9633M25.8665 30.9525V30.9633M25.8665 30.9633V30.9742M25.8665 30.9633V30.9742M25.8665 30.9742V30.985M25.8665 30.9742V30.985M25.8665 30.985V30.9958M25.8665 30.985V30.9958M25.8665 30.9958V31.0066M25.8665 30.9958V31.0066M25.8665 31.0066V31.0174M25.8665 31.0066V31.0174M25.8665 31.0174V31.0282M25.8665 31.0174V31.0282M25.8665 31.0282V31.039M25.8665 31.0282V31.039M25.8665 31.039V31.0499M25.8665 31.039V31.0499M25.8665 31.0499V31.0607M25.8665 31.0499V31.0607M25.8665 31.0607V31.0715M25.8665 31.0607V31.0715M25.8665 31.0715V31.0823M25.8665 31.0715V31.0823M25.8665 31.0823V31.0931M25.8665 31.0823V31.0931M25.8665 31.0931V31.1039M25.8665 31.0931V31.1039M25.8665 31.1039V31.1148M25.8665 31.1039V31.1148M25.8665 31.1148V31.1256M25.8665 31.1148V31.1256M25.8665 31.1256V31.1364M25.8665 31.1256V31.1364M25.8665 31.1364V31.1472M25.8665 31.1364V31.1472M25.8665 31.1472V31.158M25.8665 31.1472V31.158M25.8665 31.158V31.1688M25.8665 31.158V31.1688M25.8665 31.1688V31.1796M25.8665 31.1688V31.1796M25.8665 31.1796V31.1905M25.8665 31.1796V31.1905M25.8665 31.1905V31.2013M25.8665 31.1905V31.2013M25.8665 31.2013V31.2121M25.8665 31.2013V31.2121M25.8665 31.2121V31.2229M25.8665 31.2121V31.2229M25.8665 31.2229V31.2337M25.8665 31.2229V31.2337M25.8665 31.2337V31.2445M25.8665 31.2337V31.2445M25.8665 31.2445V31.2553M25.8665 31.2445V31.2553M25.8665 31.2553V31.2662M25.8665 31.2553V31.2662M25.8665 31.2662V31.277M25.8665 31.2662V31.277M25.8665 31.277V31.2878M25.8665 31.277V31.2878M25.8665 31.2878V31.2986M25.8665 31.2878V31.2986M25.8665 31.2986V31.3094M25.8665 31.2986V31.3094M25.8665 31.3094V31.3202M25.8665 31.3094V31.3202M25.8665 31.3202V31.3311M25.8665 31.3202V31.3311M25.8665 31.3311V31.3419M25.8665 31.3311V31.3419M25.8665 31.3419V31.3527M25.8665 31.3419V31.3527M25.8665 31.3527V31.3635M25.8665 31.3527V31.3635M25.8665 31.3635V31.3743M25.8665 31.3635V31.3743M25.8665 31.3743V31.3851M25.8665 31.3743V31.3851M25.8665 31.3851V31.3959M25.8665 31.3851V31.3959M25.8665 31.3959V31.4068M25.8665 31.3959V31.4068M25.8665 31.4068V31.4176M25.8665 31.4068V31.4176M25.8665 31.4176V31.4284M25.8665 31.4176V31.4284M25.8665 31.4284V31.4392M25.8665 31.4284V31.4392M25.8665 31.4392V31.45M25.8665 31.4392V31.45M25.8665 31.45V31.4608M25.8665 31.45V31.4608M25.8665 31.4608V31.4717M25.8665 31.4608V31.4717M25.8665 31.4717V31.4825M25.8665 31.4717V31.4825M25.8665 31.4825V31.4933M25.8665 31.4825V31.4933M25.8665 31.4933V31.5041M25.8665 31.4933V31.5041M25.8665 31.5041V31.5149M25.8665 31.5041V31.5149M25.8665 31.5149V31.5257M25.8665 31.5149V31.5257M25.8665 31.5257V31.5365M25.8665 31.5257V31.5365M25.8665 31.5365V31.5474M25.8665 31.5365V31.5474M25.8665 31.5474V31.5582M25.8665 31.5474V31.5582M25.8665 31.5582V31.569M25.8665 31.5582V31.569M25.8665 31.569V31.5798M25.8665 31.569V31.5798M25.8665 31.5798V31.5906M25.8665 31.5798V31.5906M25.8665 31.5906V31.6014M25.8665 31.5906V31.6014M25.8665 31.6014V31.6122M25.8665 31.6014V31.6122M25.8665 31.6122V31.6231M25.8665 31.6122V31.6231M25.8665 31.6231V31.6339M25.8665 31.6231V31.6339M25.8665 31.6339V31.6447M25.8665 31.6339V31.6447M25.8665 31.6447V31.6555M25.8665 31.6447V31.6555M25.8665 31.6555V31.6663M25.8665 31.6555V31.6663M25.8665 31.6663V31.6771M25.8665 31.6663V31.6771M25.8665 31.6771V31.688M25.8665 31.6771V31.688M25.8665 31.688V31.6988M25.8665 31.688V31.6988M25.8665 31.6988V31.7096M25.8665 31.6988V31.7096M25.8665 31.7096V31.7204M25.8665 31.7096V31.7204M25.8665 31.7204V31.7312M25.8665 31.7204V31.7312M25.8665 31.7312V31.742M25.8665 31.7312V31.742M25.8665 31.742V31.7528M25.8665 31.742V31.7528M25.8665 31.7528V31.7637M25.8665 31.7528V31.7637M25.8665 31.7637V31.7745M25.8665 31.7637V31.7745M25.8665 31.7745V31.7853M25.8665 31.7745V31.7853M25.8665 31.7853V31.7961M25.8665 31.7853V31.7961M25.8665 31.7961V31.8069M25.8665 31.7961V31.8069M25.8665 31.8069V31.8177M25.8665 31.8069V31.8177M25.8665 31.8177V31.8286M25.8665 31.8177V31.8286M25.8665 31.8286V31.8394M25.8665 31.8286V31.8394M25.8665 31.8394V31.8502M25.8665 31.8394V31.8502M25.8665 31.8502V31.861M25.8665 31.8502V31.861M25.8665 31.861V31.8718M25.8665 31.861V31.8718M25.8665 31.8718V31.8826M25.8665 31.8718V31.8826M25.8665 31.8826V31.8934M25.8665 31.8826V31.8934M25.8665 31.8934V31.9043M25.8665 31.8934V31.9043M25.8665 31.9043V31.9151M25.8665 31.9043V31.9151M25.8665 31.9151V31.9259M25.8665 31.9151V31.9259M25.8665 31.9259V31.9367M25.8665 31.9259V31.9367M25.8665 31.9367V31.9475M25.8665 31.9367V31.9475M25.8665 31.9475V31.9583M25.8665 31.9475V31.9583M25.8665 31.9583V31.9692M25.8665 31.9583V31.9692M25.8665 31.9692V31.98M25.8665 31.9692V31.98M25.8665 31.98V31.9908M25.8665 31.98V31.9908M25.8665 31.9908V32.0016M25.8665 31.9908V32.0016M25.8665 32.0016V32.0124M25.8665 32.0016V32.0124M25.8665 32.0124V32.0232M25.8665 32.0124V32.0232M25.8665 32.0232V32.034M25.8665 32.0232V32.034M25.8665 32.034V32.0449M25.8665 32.034V32.0449M25.8665 32.0449V32.0557M25.8665 32.0449V32.0557M25.8665 32.0557V32.0665M25.8665 32.0557V32.0665M25.8665 32.0665V32.0773M25.8665 32.0665V32.0773M25.8665 32.0773V32.0881M25.8665 32.0773V32.0881M25.8665 32.0881V32.0989M25.8665 32.0881V32.0989M25.8665 32.0989V32.1098M25.8665 32.0989V32.1098M25.8665 32.1098V32.1206M25.8665 32.1098V32.1206M25.8665 32.1206V32.1314M25.8665 32.1206V32.1314M25.8665 32.1314V32.1422M25.8665 32.1314V32.1422M25.8665 32.1422V32.153M25.8665 32.1422V32.153M25.8665 32.153V32.1638M25.8665 32.153V32.1638M25.8665 32.1638V32.1746M25.8665 32.1638V32.1746M25.8665 32.1746V32.1855M25.8665 32.1746V32.1855M25.8665 32.1855V32.1963M25.8665 32.1855V32.1963M25.8665 32.1963V32.2071M25.8665 32.1963V32.2071M25.8665 32.2071V32.2179M25.8665 32.2071V32.2179M25.8665 32.2179V32.2287M25.8665 32.2179V32.2287M25.8665 32.2287V32.2395M25.8665 32.2287V32.2395M25.8665 32.2395V32.2504M25.8665 32.2395V32.2504M25.8665 32.2504V32.2612M25.8665 32.2504V32.2612M25.8665 32.2612V32.272M25.8665 32.2612V32.272M25.8665 32.272V32.2828M25.8665 32.272V32.2828M25.8665 32.2828V32.2936M25.8665 32.2828V32.2936M25.8665 32.2936V32.3044M25.8665 32.2936V32.3044M25.8665 32.3044V32.3152M25.8665 32.3044V32.3152M25.8665 32.3152V32.3261M25.8665 32.3152V32.3261M25.8665 32.3261V32.3369M25.8665 32.3261V32.3369M25.8665 32.3369V32.3477M25.8665 32.3369V32.3477M25.8665 32.3477V32.3585M25.8665 32.3477V32.3585M25.8665 32.3585V32.3693M25.8665 32.3585V32.3693M25.8665 32.3693V32.3801M25.8665 32.3693V32.3801M25.8665 32.3801V32.391M25.8665 32.3801V32.391M25.8665 32.391V32.4018M25.8665 32.391V32.4018M25.8665 32.4018V32.4126M25.8665 32.4018V32.4126M25.8665 32.4126V32.4234M25.8665 32.4126V32.4234M25.8665 32.4234V32.4342M25.8665 32.4234V32.4342M25.8665 32.4342V32.445M25.8665 32.4342V32.445M25.8665 32.445V32.4558M25.8665 32.445V32.4558M25.8665 32.4558V32.4667M25.8665 32.4558V32.4667M25.8665 32.4667V32.4775M25.8665 32.4667V32.4775M25.8665 32.4775V32.4883M25.8665 32.4775V32.4883M25.8665 32.4883V32.4991M25.8665 32.4883V32.4991M25.8665 32.4991V32.5099M25.8665 32.4991V32.5099M25.8665 32.5099V32.5207M25.8665 32.5099V32.5207M25.8665 32.5207V32.5316M25.8665 32.5207V32.5316M25.8665 32.5316V32.5424M25.8665 32.5316V32.5424M25.8665 32.5424V32.5532M25.8665 32.5424V32.5532M25.8665 32.5532V32.564M25.8665 32.5532V32.564M25.8665 32.564V32.5748M25.8665 32.564V32.5748M25.8665 32.5748V32.5856M25.8665 32.5748V32.5856M25.8665 32.5856V32.5964M25.8665 32.5856V32.5964M25.8665 32.5964V32.6073M25.8665 32.5964V32.6073M25.8665 32.6073V32.6181M25.8665 32.6073V32.6181M25.8665 32.6181V32.6289M25.8665 32.6181V32.6289M25.8665 32.6289V32.6397M25.8665 32.6289V32.6397M25.8665 32.6397V32.6505M25.8665 32.6397V32.6505M25.8665 32.6505V32.6613M25.8665 32.6505V32.6613M25.8665 32.6613V32.6722M25.8665 32.6613V32.6722M25.8665 32.6722V32.683M25.8665 32.6722V32.683M25.8665 32.683V32.6938M25.8665 32.683V32.6938M25.8665 32.6938V32.7046M25.8665 32.6938V32.7046M25.8665 32.7046V32.7154M25.8665 32.7046V32.7154M25.8665 32.7154V32.7262M25.8665 32.7154V32.7262M25.8665 32.7262V32.7371M25.8665 32.7262V32.7371M25.8665 32.7371V32.7479M25.8665 32.7371V32.7479M25.8665 32.7479V32.7587M25.8665 32.7479V32.7587M25.8665 32.7587V32.7695M25.8665 32.7587V32.7695M25.8665 32.7695V32.7803M25.8665 32.7695V32.7803M25.8665 32.7803V32.7911M25.8665 32.7803V32.7911M25.8665 32.7911V32.8019M25.8665 32.7911V32.8019M25.8665 32.8019V32.8128M25.8665 32.8019V32.8128M25.8665 32.8128V32.8236M25.8665 32.8128V32.8236M25.8665 32.8236V32.8344M25.8665 32.8236V32.8344M25.8665 32.8344V32.8452M25.8665 32.8344V32.8452M25.8665 32.8452V32.856M25.8665 32.8452V32.856M25.8665 32.856V32.8668M25.8665 32.856V32.8668M25.8665 32.8668V32.8777M25.8665 32.8668V32.8777M25.8665 32.8777V32.8885M25.8665 32.8777V32.8885M25.8665 32.8885V32.8993M25.8665 32.8885V32.8993M25.8665 32.8993V32.9101M25.8665 32.8993V32.9101M25.8665 32.9101V32.9209M25.8665 32.9101V32.9209M25.8665 32.9209V32.9317M25.8665 32.9209V32.9317M25.8665 32.9317V32.9425M25.8665 32.9317V32.9425M25.8665 32.9425V32.9534M25.8665 32.9425V32.9534M25.8665 32.9534V32.9642M25.8665 32.9534V32.9642M25.8665 32.9642V32.975M25.8665 32.9642V32.975M25.8665 32.975V32.9858M25.8665 32.975V32.9858M25.8665 32.9858V32.9966M25.8665 32.9858V32.9966M25.8665 32.9966V33.0074M25.8665 32.9966V33.0074M25.8665 33.0074V33.0183M25.8665 33.0074V33.0183M25.8665 33.0183V33.0291M25.8665 33.0183V33.0291M25.8665 33.0291V33.0399M25.8665 33.0291V33.0399M25.8665 33.0399V33.0507M25.8665 33.0399V33.0507M25.8665 33.0507V33.0615M25.8665 33.0507V33.0615M25.8665 33.0615V33.0723M25.8665 33.0615V33.0723M25.8665 33.0723V33.0832M25.8665 33.0723V33.0832M25.8665 33.0832V33.094M25.8665 33.0832V33.094M25.8665 33.094V33.1048M25.8665 33.094V33.1048M25.8665 33.1048V33.1156M25.8665 33.1048V33.1156M25.8665 33.1156V33.1264M25.8665 33.1156V33.1264M25.8665 33.1264V33.1372M25.8665 33.1264V33.1372M25.8665 33.1372V33.148M25.8665 33.1372V33.148M25.8665 33.148V33.1589M25.8665 33.148V33.1589M25.8665 33.1589V33.1697M25.8665 33.1589V33.1697M25.8665 33.1697V33.1805M25.8665 33.1697V33.1805M25.8665 33.1805V33.1913M25.8665 33.1805V33.1913M25.8665 33.1913V33.2021M25.8665 33.1913V33.2021M25.8665 33.2021V33.2129M25.8665 33.2021V33.2129M25.8665 33.2129V33.2238M25.8665 33.2129V33.2238M25.8665 33.2238V33.2346M25.8665 33.2238V33.2346M25.8665 33.2346V33.2454M25.8665 33.2346V33.2454M25.8665 33.2454V33.2562M25.8665 33.2454V33.2562M25.8665 33.2562V33.2862M25.8665 33.2562V33.2862M25.8665 33.2862V33.3163M25.8665 33.2862V33.3163M25.8665 33.3163V33.3463M25.8665 33.3163V33.3463M25.8665 33.3463V33.3763M25.8665 33.3463V33.3763M25.8665 33.3763V33.4063M25.8665 33.3763V33.4063M25.8665 33.4063V33.4364M25.8665 33.4063V33.4364M25.8665 33.4364V33.4664M25.8665 33.4364V33.4664M25.8665 33.4664V33.4964M25.8665 33.4664V33.4964M25.8665 33.4964V33.5264M25.8665 33.4964V33.5264M25.8665 33.5264V33.5565M25.8665 33.5264V33.5565M25.8665 33.5565V33.5865M25.8665 33.5565V33.5865M25.8665 33.5865V33.6165M25.8665 33.5865V33.6165M25.8665 33.6165V33.6465M25.8665 33.6165V33.6465M25.8665 33.6465V33.6766M25.8665 33.6465V33.6766M25.8665 33.6766V33.7066M25.8665 33.6766V33.7066M25.8665 33.7066V33.7366M25.8665 33.7066V33.7366M25.8665 33.7366V33.7666M25.8665 33.7366V33.7666M25.8665 33.7666V33.7967M25.8665 33.7666V33.7967M25.8665 33.7967V33.8267M25.8665 33.7967V33.8267M25.8665 33.8267V33.8567M25.8665 33.8267V33.8567M25.8665 33.8567V33.8867M25.8665 33.8567V33.8867M25.8665 33.8867V33.9168M25.8665 33.8867V33.9168M25.8665 33.9168V33.9468M25.8665 33.9168V33.9468M25.8665 33.9468V33.9768M25.8665 33.9468V33.9768M25.8665 33.9768V34.0068M25.8665 33.9768V34.0068M25.8665 34.0068V34.0369M25.8665 34.0068V34.0369M25.8665 34.0369V34.0669M25.8665 34.0369V34.0669M25.8665 34.0669V34.0969M25.8665 34.0669V34.0969M25.8665 34.0969V34.1269M25.8665 34.0969V34.1269M25.8665 34.1269V34.157M25.8665 34.1269V34.157M25.8665 34.157V34.187M25.8665 34.157V34.187M25.8665 34.187V34.217M25.8665 34.187V34.217M25.8665 34.217V34.247M25.8665 34.217V34.247M25.8665 34.247V34.2771M25.8665 34.247V34.2771M25.8665 34.2771V34.3071M25.8665 34.2771V34.3071M25.8665 34.3071V34.3371M25.8665 34.3071V34.3371M25.8665 34.3371V34.3671M25.8665 34.3371V34.3671M25.8665 34.3671V34.3972M25.8665 34.3671V34.3972M25.8665 34.3972V34.4272M25.8665 34.3972V34.4272M25.8665 34.4272V34.4572M25.8665 34.4272V34.4572M25.8665 34.4572V34.4872M25.8665 34.4572V34.4872M25.8665 34.4872V34.5173M25.8665 34.4872V34.5173M25.8665 34.5173V34.5473M25.8665 34.5173V34.5473M25.8665 34.5473V34.5773M25.8665 34.5473V34.5773M25.8665 34.5773V34.6073M25.8665 34.5773V34.6073M25.8665 34.6073V34.6374M25.8665 34.6073V34.6374M25.8665 34.6374V34.6674M25.8665 34.6374V34.6674M25.8665 34.6674V34.6974M25.8665 34.6674V34.6974M25.8665 34.6974V34.7274M25.8665 34.6974V34.7274M25.8665 34.7274V34.7575M25.8665 34.7274V34.7575M25.8665 34.7575V34.7875M25.8665 34.7575V34.7875M25.8665 34.7875V34.8175M25.8665 34.7875V34.8175M25.8665 34.8175V34.8475M25.8665 34.8175V34.8475M25.8665 34.8475V34.8776M25.8665 34.8475V34.8776M25.8665 34.8776V34.9076M25.8665 34.8776V34.9076M25.8665 34.9076V34.9376M25.8665 34.9076V34.9376M25.8665 34.9376V34.9676M25.8665 34.9376V34.9676M25.8665 34.9676V34.9977M25.8665 34.9676V34.9977M25.8665 34.9977V35.0277M25.8665 34.9977V35.0277M25.8665 35.0277V35.0577M25.8665 35.0277V35.0577M25.8665 35.0577V35.0878M25.8665 35.0577V35.0878M25.8665 35.0878V35.1178M25.8665 35.0878V35.1178M25.8665 35.1178V35.1478M25.8665 35.1178V35.1478M25.8665 35.1478V35.1778M25.8665 35.1478V35.1778M25.8665 35.1778V35.2079M25.8665 35.1778V35.2079M25.8665 35.2079V35.2379M25.8665 35.2079V35.2379M25.8665 35.2379V35.2679M25.8665 35.2379V35.2679M25.8665 35.2679V35.2979M25.8665 35.2679V35.2979M25.8665 35.2979V35.328M25.8665 35.2979V35.328M25.8665 35.328V35.358M25.8665 35.328V35.358M25.8665 35.358V35.388M25.8665 35.358V35.388M25.8665 35.388V35.418M25.8665 35.388V35.418M25.8665 35.418V35.4481M25.8665 35.418V35.4481M25.8665 35.4481V35.4781M25.8665 35.4481V35.4781M25.8665 35.4781V35.5081M25.8665 35.4781V35.5081M25.8665 35.5081V35.5381M25.8665 35.5081V35.5381M25.8665 35.5381V35.5682M25.8665 35.5381V35.5682M25.8665 35.5682V35.5982M25.8665 35.5682V35.5982M25.8665 35.5982V35.6282M25.8665 35.5982V35.6282M25.8665 35.6282V35.6582M25.8665 35.6282V35.6582M25.8665 35.6582V35.6883M25.8665 35.6582V35.6883M25.8665 35.6883V35.7183M25.8665 35.6883V35.7183M25.8665 35.7183V35.7483M25.8665 35.7183V35.7483M25.8665 35.7483V35.7783M25.8665 35.7483V35.7783M25.8665 35.7783V35.8084M25.8665 35.7783V35.8084M25.8665 35.8084V35.8384M25.8665 35.8084V35.8384M25.8665 35.8384V35.8684M25.8665 35.8384V35.8684M25.8665 35.8684V35.8984M25.8665 35.8684V35.8984M25.8665 35.8984V35.9285M25.8665 35.8984V35.9285M25.8665 35.9285V35.9585M25.8665 35.9285V35.9585M25.8665 35.9585V35.9885M25.8665 35.9585V35.9885M25.8665 35.9885V36.0185M25.8665 35.9885V36.0185M25.8665 36.0185V36.0486M25.8665 36.0185V36.0486M25.8665 36.0486V36.0786M25.8665 36.0486V36.0786M25.8665 36.0786V36.1086M25.8665 36.0786V36.1086M25.8665 36.1086V36.1386M25.8665 36.1086V36.1386M25.8665 36.1386V36.1687M25.8665 36.1386V36.1687M25.8665 36.1687V36.1987M25.8665 36.1687V36.1987M25.8665 36.1987V36.2287M25.8665 36.1987V36.2287M25.8665 36.2287V36.2587M25.8665 36.2287V36.2587M25.8665 36.2587V36.2888M25.8665 36.2587V36.2888M25.8665 36.2888V36.3188M25.8665 36.2888V36.3188M25.8665 36.3188V36.3488M25.8665 36.3188V36.3488M25.8665 36.3488V36.3788M25.8665 36.3488V36.3788M25.8665 36.3788V36.4089M25.8665 36.3788V36.4089M25.8665 36.4089V36.4389M25.8665 36.4089V36.4389M25.8665 36.4389V36.4689M25.8665 36.4389V36.4689M25.8665 36.4689V36.499M25.8665 36.4689V36.499M25.8665 36.499V36.529M25.8665 36.499V36.529M25.8665 36.529V36.559M25.8665 36.529V36.559M25.8665 36.559V36.589M25.8665 36.559V36.589M25.8665 36.589V36.6191M25.8665 36.589V36.6191M25.8665 36.6191V36.6491M25.8665 36.6191V36.6491M25.8665 36.6491V36.6791M25.8665 36.6491V36.6791M25.8665 36.6791V36.7091M25.8665 36.6791V36.7091M25.8665 36.7091V36.7392M25.8665 36.7091V36.7392M25.8665 36.7392V36.7692M25.8665 36.7392V36.7692M25.8665 36.7692V36.7992M25.8665 36.7692V36.7992M25.8665 36.7992V36.8292M25.8665 36.7992V36.8292M25.8665 36.8292V36.8593M25.8665 36.8292V36.8593M25.8665 36.8593V36.8893M25.8665 36.8593V36.8893M25.8665 36.8893V36.9193M25.8665 36.8893V36.9193M25.8665 36.9193V36.9493M25.8665 36.9193V36.9493M25.8665 36.9493V36.9794M25.8665 36.9493V36.9794M25.8665 36.9794V37.0094M25.8665 36.9794V37.0094M25.8665 37.0094V37.0394M25.8665 37.0094V37.0394M25.8665 37.0394V37.0694M25.8665 37.0394V37.0694M25.8665 37.0694V37.0995M25.8665 37.0694V37.0995M25.8665 37.0995V37.1295M25.8665 37.0995V37.1295M25.8665 37.1295V37.1595M25.8665 37.1295V37.1595M25.8665 37.1595V37.1895M25.8665 37.1595V37.1895M25.8665 37.1895V37.2196M25.8665 37.1895V37.2196M25.8665 37.2196V37.2496M25.8665 37.2196V37.2496M25.8665 37.2496V37.2796M25.8665 37.2496V37.2796M25.8665 37.2796V37.3096M25.8665 37.2796V37.3096M25.8665 37.3096V37.3397M25.8665 37.3096V37.3397M25.8665 37.3397V37.3697M25.8665 37.3397V37.3697M25.8665 37.3697V37.3997M25.8665 37.3697V37.3997M25.8665 37.3997V37.4297M25.8665 37.3997V37.4297M25.8665 37.4297V37.4598M25.8665 37.4297V37.4598M25.8665 37.4598V37.4898M25.8665 37.4598V37.4898M25.8665 37.4898V37.5198M25.8665 37.4898V37.5198M25.8665 37.5198V37.5499M25.8665 37.5198V37.5499M25.8665 37.5499V37.5799M25.8665 37.5499V37.5799M25.8665 37.5799V37.6099M25.8665 37.5799V37.6099M25.8665 37.6099V37.6399M25.8665 37.6099V37.6399M25.8665 37.6399V37.67M25.8665 37.6399V37.67M25.8665 37.67V37.7M25.8665 37.67V37.7M25.8665 37.7V37.73M25.8665 37.7V37.73M25.8665 37.73V37.76M25.8665 37.73V37.76M25.8665 37.76V37.7901M25.8665 37.76V37.7901M25.8665 37.7901V37.8201M25.8665 37.7901V37.8201M25.8665 37.8201V37.8501M25.8665 37.8201V37.8501M25.8665 37.8501V37.8801M25.8665 37.8501V37.8801M25.8665 37.8801V37.9102M25.8665 37.8801V37.9102M25.8665 37.9102V37.9402M25.8665 37.9102V37.9402M25.8665 37.9402V37.9702M25.8665 37.9402V37.9702M25.8665 37.9702V38.0002M25.8665 37.9702V38.0002M25.8665 38.0002V38.0303M25.8665 38.0002V38.0303M25.8665 38.0303V38.0603M25.8665 38.0303V38.0603M25.8665 38.0603V38.0903M25.8665 38.0603V38.0903M25.8665 38.0903V38.1203M25.8665 38.0903V38.1203M25.8665 38.1203V38.1504M25.8665 38.1203V38.1504M25.8665 38.1504V38.1804M25.8665 38.1504V38.1804M25.8665 38.1804V38.2104M25.8665 38.1804V38.2104M25.8665 38.2104V38.2404M25.8665 38.2104V38.2404M25.8665 38.2404V38.2705M25.8665 38.2404V38.2705M25.8665 38.2705V38.3005M25.8665 38.2705V38.3005M25.8665 38.3005V38.3305M25.8665 38.3005V38.3305M25.8665 38.3305V38.3606M25.8665 38.3305V38.3606M25.8665 38.3606V38.3906M25.8665 38.3606V38.3906M25.8665 38.3906V38.4206M25.8665 38.3906V38.4206M25.8665 38.4206V38.4506M25.8665 38.4206V38.4506M25.8665 38.4506V38.4807M25.8665 38.4506V38.4807M25.8665 38.4807V38.5107M25.8665 38.4807V38.5107M25.8665 38.5107V38.5407M25.8665 38.5107V38.5407M25.8665 38.5407V38.5707M25.8665 38.5407V38.5707M25.8665 38.5707V38.6008M25.8665 38.5707V38.6008M25.8665 38.6008V38.6308M25.8665 38.6008V38.6308M25.8665 38.6308V38.6608M25.8665 38.6308V38.6608M25.8665 38.6608V38.6908M25.8665 38.6608V38.6908M25.8665 38.6908V38.7209M25.8665 38.6908V38.7209M25.8665 38.7209V38.7509M25.8665 38.7209V38.7509M25.8665 38.7509V38.7809M25.8665 38.7509V38.7809M25.8665 38.7809V38.8109M25.8665 38.7809V38.8109M25.8665 38.8109V38.841M25.8665 38.8109V38.841M25.8665 38.841V38.871M25.8665 38.841V38.871M25.8665 38.871V38.901M25.8665 38.871V38.901M25.8665 38.901V38.931M25.8665 38.901V38.931M25.8665 38.931V38.9611M25.8665 38.931V38.9611M25.8665 38.9611V38.9911M25.8665 38.9611V38.9911M25.8665 38.9911V39.0211M25.8665 38.9911V39.0211M25.8665 39.0211V39.0511M25.8665 39.0211V39.0511M25.8665 39.0511V39.0812M25.8665 39.0511V39.0812M25.8665 39.0812V39.1112M25.8665 39.0812V39.1112M25.8665 39.1112V39.1412M25.8665 39.1112V39.1412M25.8665 39.1412V39.1713M25.8665 39.1412V39.1713M25.8665 39.1713V39.2013M25.8665 39.1713V39.2013M25.8665 39.2013V39.2313M25.8665 39.2013V39.2313M25.8665 39.2313V39.2613M25.8665 39.2313V39.2613M25.8665 39.2613V39.2914M25.8665 39.2613V39.2914M25.8665 39.2914V39.3214M25.8665 39.2914V39.3214M25.8665 39.3214V39.3514M25.8665 39.3214V39.3514M25.8665 39.3514V39.3814M25.8665 39.3514V39.3814M25.8665 39.3814V39.4115M25.8665 39.3814V39.4115M25.8665 39.4115V39.4415M25.8665 39.4115V39.4415M25.8665 39.4415V39.4715M25.8665 39.4415V39.4715M25.8665 39.4715V39.5015M25.8665 39.4715V39.5015M25.8665 39.5015V39.5316M25.8665 39.5015V39.5316M25.8665 39.5316V39.5616M25.8665 39.5316V39.5616M25.8665 39.5616V39.5916M25.8665 39.5616V39.5916M25.8665 39.5916V39.6216M25.8665 39.5916V39.6216M25.8665 39.6216V39.6517M25.8665 39.6216V39.6517M25.8665 39.6517V39.6817M25.8665 39.6517V39.6817M25.8665 39.6817V39.7117M25.8665 39.6817V39.7117M25.8665 39.7117V39.7417M25.8665 39.7117V39.7417M25.8665 39.7417V39.7718M25.8665 39.7417V39.7718M25.8665 39.7718V39.8018M25.8665 39.7718V39.8018M25.8665 39.8018V39.8318M25.8665 39.8018V39.8318M25.8665 39.8318V39.8618M25.8665 39.8318V39.8618M25.8665 39.8618V39.8919M25.8665 39.8618V39.8919M25.8665 39.8919V39.9219M25.8665 39.8919V39.9219M25.8665 39.9219V39.9519M25.8665 39.9219V39.9519M25.8665 39.9519V39.982M25.8665 39.9519V39.982M25.8665 39.982V40.012M25.8665 39.982V40.012M25.8665 40.012V40.042M25.8665 40.012V40.042M25.8665 40.042V40.072M25.8665 40.042V40.072M25.8665 40.072V40.1021M25.8665 40.072V40.1021M25.8665 40.1021V40.1321M25.8665 40.1021V40.1321M25.8665 40.1321V40.1621M25.8665 40.1321V40.1621M25.8665 40.1621V40.1921M25.8665 40.1621V40.1921M25.8665 40.1921V40.2222M25.8665 40.1921V40.2222M25.8665 40.2222V40.2522M25.8665 40.2222V40.2522M25.8665 40.2522V40.2822M25.8665 40.2522V40.2822M25.8665 40.2822V40.3122M25.8665 40.2822V40.3122M25.8665 40.3122V40.3423M25.8665 40.3122V40.3423M25.8665 40.3423V40.3723M25.8665 40.3423V40.3723M25.8665 40.3723V40.4023M25.8665 40.3723V40.4023M25.8665 40.4023V40.4323M25.8665 40.4023V40.4323M25.8665 40.4323V40.4624M25.8665 40.4323V40.4624M25.8665 40.4624V40.4924M25.8665 40.4624V40.4924M25.8665 40.4924V40.5224M25.8665 40.4924V40.5224M25.8665 40.5224V40.5525M25.8665 40.5224V40.5525M25.8665 40.5525V40.5825M25.8665 40.5525V40.5825M25.8665 40.5825V40.6125M25.8665 40.5825V40.6125M25.8665 40.6125V40.6425M25.8665 40.6125V40.6425M25.8665 40.6425V40.6726M25.8665 40.6425V40.6726M25.8665 40.6726V40.7026M25.8665 40.6726V40.7026M25.8665 40.7026V40.7326M25.8665 40.7026V40.7326M25.8665 40.7326V40.7626M25.8665 40.7326V40.7626M25.8665 40.7626V40.7927M25.8665 40.7626V40.7927M25.8665 40.7927V40.8227M25.8665 40.7927V40.8227M25.8665 40.8227V40.8527M25.8665 40.8227V40.8527M25.8665 40.8527V40.8827M25.8665 40.8527V40.8827M25.8665 40.8827V40.9128M25.8665 40.8827V40.9128M25.8665 40.9128V40.9428M25.8665 40.9128V40.9428M25.8665 40.9428V40.9728M25.8665 40.9428V40.9728M25.8665 40.9728V41.0028M25.8665 40.9728V41.0028M25.8665 41.0028V41.0329M25.8665 41.0028V41.0329M25.8665 41.0329V41.0629M25.8665 41.0329V41.0629M25.8665 41.0629V41.0929M25.8665 41.0629V41.0929M25.8665 41.0929V41.1229M25.8665 41.0929V41.1229M25.8665 41.1229V41.153M25.8665 41.1229V41.153M25.8665 41.153V41.183M25.8665 41.153V41.183M25.8665 41.183V41.213M25.8665 41.183V41.213M25.8665 41.213V41.2431M25.8665 41.213V41.2431M25.8665 41.2431V41.2731M25.8665 41.2431V41.2731M25.8665 41.2731V41.3031M25.8665 41.2731V41.3031M25.8665 41.3031V41.3331M25.8665 41.3031V41.3331M25.8665 41.3331V41.3632M25.8665 41.3331V41.3632M25.8665 41.3632V41.3932M25.8665 41.3632V41.3932M25.8665 41.3932V41.4232M25.8665 41.3932V41.4232M25.8665 41.4232V41.4532M25.8665 41.4232V41.4532M25.8665 41.4532V41.4833M25.8665 41.4532V41.4833M25.8665 41.4833V41.5133M25.8665 41.4833V41.5133M25.8665 41.5133V41.5433M25.8665 41.5133V41.5433M25.8665 41.5433V41.5733M25.8665 41.5433V41.5733M25.8665 41.5733V41.6034M25.8665 41.5733V41.6034M25.8665 41.6034V41.6334M25.8665 41.6034V41.6334M25.8665 41.6334V41.6634M25.8665 41.6334V41.6634M25.8665 41.6634V41.6934M25.8665 41.6634V41.6934M25.8665 41.6934V41.7235M25.8665 41.6934V41.7235M25.8665 41.7235V41.7535M25.8665 41.7235V41.7535M25.8665 41.7535V41.7835M25.8665 41.7535V41.7835M25.8665 41.7835V41.8136M25.8665 41.7835V41.8136M25.8665 41.8136V41.8436M25.8665 41.8136V41.8436M25.8665 41.8436V41.8736M25.8665 41.8436V41.8736M25.8665 41.8736V41.9036M25.8665 41.8736V41.9036M25.8665 41.9036V41.9337M25.8665 41.9036V41.9337M25.8665 41.9337V41.9637M25.8665 41.9337V41.9637M25.8665 41.9637V41.9937M25.8665 41.9637V41.9937M25.8665 41.9937V42.0237M25.8665 41.9937V42.0237M25.8665 42.0237V42.0538M25.8665 42.0237V42.0538M25.8665 42.0538V42.0838M25.8665 42.0538V42.0838M25.8665 42.0838V42.1138M25.8665 42.0838V42.1138M25.8665 42.1138V42.1438M25.8665 42.1138V42.1438M25.8665 42.1438V42.1739M25.8665 42.1438V42.1739M25.8665 42.1739V42.2039M25.8665 42.1739V42.2039M25.8665 42.2039V42.2339M25.8665 42.2039V42.2339M25.8665 42.2339V42.2639M25.8665 42.2339V42.2639M25.8665 42.2639V42.294M25.8665 42.2639V42.294M25.8665 42.294V42.324M25.8665 42.294V42.324M25.8665 42.324V42.354M25.8665 42.324V42.354M25.8665 42.354V42.3841M25.8665 42.354V42.3841M25.8665 42.3841V42.4141M25.8665 42.3841V42.4141M25.8665 42.4141V42.4441M25.8665 42.4141V42.4441M25.8665 42.4441V42.4741M25.8665 42.4441V42.4741M25.8665 42.4741V42.5042M25.8665 42.4741V42.5042M25.8665 42.5042V42.5342M25.8665 42.5042V42.5342M25.8665 42.5342V42.5642M25.8665 42.5342V42.5642M25.8665 42.5642V42.5942M25.8665 42.5642V42.5942M25.8665 42.5942V42.6243M25.8665 42.5942V42.6243M25.8665 42.6243V42.6543M25.8665 42.6243V42.6543M25.8665 42.6543V42.6843M25.8665 42.6543V42.6843M25.8665 42.6843V42.7143M25.8665 42.6843V42.7143M25.8665 42.7143V42.7444M25.8665 42.7143V42.7444M25.8665 42.7444V42.7744M25.8665 42.7444V42.7744M25.8665 42.7744V42.8044M25.8665 42.7744V42.8044M25.8665 42.8044V42.8344M25.8665 42.8044V42.8344M25.8665 42.8344V42.8645M25.8665 42.8344V42.8645M25.8665 42.8645V42.8945M25.8665 42.8645V42.8945M25.8665 42.8945V42.9245M25.8665 42.8945V42.9245M25.8665 42.9245V42.9546M25.8665 42.9245V42.9546M25.8665 42.9546V42.9846M25.8665 42.9546V42.9846M25.8665 42.9846V43.0146M25.8665 42.9846V43.0146M25.8665 43.0146V43.0446M25.8665 43.0146V43.0446M25.8665 43.0446V43.0747M25.8665 43.0446V43.0747M25.8665 43.0747V43.1047M25.8665 43.0747V43.1047M25.8665 43.1047V43.1347M25.8665 43.1047V43.1347M25.8665 43.1347V43.1647M25.8665 43.1347V43.1647M25.8665 43.1647V43.1948M25.8665 43.1647V43.1948M25.8665 43.1948V43.2248M25.8665 43.1948V43.2248M25.8665 43.2248V43.2548M25.8665 43.2248V43.2548M25.8665 43.2548V43.2848M25.8665 43.2548V43.2848M25.8665 43.2848V43.3149M25.8665 43.2848V43.3149M25.8665 43.3149V43.3449M25.8665 43.3149V43.3449M25.8665 43.3449V43.3749M25.8665 43.3449V43.3749M25.8665 43.3749V43.405M25.8665 43.3749V43.405M25.8665 43.405V43.435M25.8665 43.405V43.435M25.8665 43.435V43.465M25.8665 43.435V43.465M25.8665 43.465V43.495M25.8665 43.465V43.495M25.8665 43.495V43.5251M25.8665 43.495V43.5251M25.8665 43.5251V43.5551M25.8665 43.5251V43.5551M25.8665 43.5551V43.5851M25.8665 43.5551V43.5851M25.8665 43.5851V43.6151M25.8665 43.5851V43.6151M25.8665 43.6151V43.6452M25.8665 43.6151V43.6452M25.8665 43.6452V43.6752M25.8665 43.6452V43.6752M25.8665 43.6752V43.7052M25.8665 43.6752V43.7052M25.8665 43.7052V43.7352M25.8665 43.7052V43.7352M25.8665 43.7352V43.7653M25.8665 43.7352V43.7653M25.8665 43.7653V43.7953M25.8665 43.7653V43.7953M25.8665 43.7953V43.8253M25.8665 43.7953V43.8253M25.8665 43.8253V43.8554M25.8665 43.8253V43.8554M25.8665 43.8554V43.8854M25.8665 43.8554V43.8854M25.8665 43.8854V43.9154M25.8665 43.8854V43.9154M25.8665 43.9154V43.9454M25.8665 43.9154V43.9454M25.8665 43.9454V43.9755M25.8665 43.9454V43.9755M25.8665 43.9755V44.0055M25.8665 43.9755V44.0055M25.8665 44.0055V44.0355M25.8665 44.0055V44.0355M25.8665 44.0355V44.0655M25.8665 44.0355V44.0655M25.8665 44.0655V44.0956M25.8665 44.0655V44.0956M25.8665 44.0956V44.1256M25.8665 44.0956V44.1256M25.8665 44.1256V44.1556M25.8665 44.1256V44.1556M25.8665 44.1556V44.1856M25.8665 44.1556V44.1856M25.8665 44.1856V44.2157M25.8665 44.1856V44.2157M25.8665 44.2157V44.2457M25.8665 44.2157V44.2457M25.8665 44.2457V44.2757M25.8665 44.2457V44.2757M25.8665 44.2757V44.3057M25.8665 44.2757V44.3057M25.8665 44.3057V44.3358M25.8665 44.3057V44.3358M25.8665 44.3358V44.3658M25.8665 44.3358V44.3658M25.8665 44.3658V44.3958M25.8665 44.3658V44.3958M25.8665 44.3958V44.4259M25.8665 44.3958V44.4259M25.8665 44.4259V44.4559M25.8665 44.4259V44.4559M25.8665 44.4559V44.4859M25.8665 44.4559V44.4859M25.8665 44.4859V44.5159M25.8665 44.4859V44.5159M25.8665 44.5159V44.546M25.8665 44.5159V44.546M25.8665 44.546V44.576M25.8665 44.546V44.576M25.8665 44.576V44.606M25.8665 44.576V44.606M25.8665 44.606V44.636M25.8665 44.606V44.636M25.8665 44.636V44.6661M25.8665 44.636V44.6661M25.8665 44.6661V44.6961M25.8665 44.6661V44.6961M25.8665 44.6961V44.7261M25.8665 44.6961V44.7261M25.8665 44.7261V44.7561M25.8665 44.7261V44.7561M25.8665 44.7561V44.7862M25.8665 44.7561V44.7862M25.8665 44.7862V44.8162M25.8665 44.7862V44.8162M25.8665 44.8162V44.8462M25.8665 44.8162V44.8462M25.8665 44.8462V44.8763M25.8665 44.8462V44.8763M25.8665 44.8763V44.9063M25.8665 44.8763V44.9063M25.8665 44.9063V44.9363M25.8665 44.9063V44.9363M25.8665 44.9363V44.9663M25.8665 44.9363V44.9663M25.8665 44.9663V44.9964M25.8665 44.9663V44.9964M25.8665 44.9964V45.0264M25.8665 44.9964V45.0264M25.8665 45.0264V45.0564M25.8665 45.0264V45.0564M25.8665 45.0564V45.0864M25.8665 45.0564V45.0864M25.8665 45.0864V45.1165M25.8665 45.0864V45.1165M25.8665 45.1165V45.1465M25.8665 45.1165V45.1465M25.8665 45.1465V45.1765M25.8665 45.1465V45.1765M25.8665 45.1765V45.2065M25.8665 45.1765V45.2065M25.8665 45.2065V45.2366M25.8665 45.2065V45.2366M25.8665 45.2366V45.2666M25.8665 45.2366V45.2666M25.8665 45.2666V45.2966M25.8665 45.2666V45.2966M25.8665 45.2966V45.3267M25.8665 45.2966V45.3267M25.8665 45.3267V45.3567M25.8665 45.3267V45.3567M25.8665 45.3567V45.3867M25.8665 45.3567V45.3867M25.8665 45.3867V45.4167M25.8665 45.3867V45.4167M25.8665 45.4167V45.4468M25.8665 45.4167V45.4468M25.8665 45.4468V45.4768M25.8665 45.4468V45.4768M25.8665 45.4768V45.5068M25.8665 45.4768V45.5068M25.8665 45.5068V45.5368M25.8665 45.5068V45.5368M25.8665 45.5368V45.5669M25.8665 45.5368V45.5669M25.8665 45.5669V45.5969M25.8665 45.5669V45.5969M25.8665 45.5969V45.6269M25.8665 45.5969V45.6269M25.8665 45.6269V45.6569M25.8665 45.6269V45.6569M25.8665 45.6569V45.687M25.8665 45.6569V45.687M25.8665 45.687V45.717M25.8665 45.687V45.717M25.8665 45.717V45.747M25.8665 45.717V45.747M25.8665 45.747V45.7771M25.8665 45.747V45.7771M25.8665 45.7771V45.8071M25.8665 45.7771V45.8071M25.8665 45.8071V45.8371M25.8665 45.8071V45.8371M25.8665 45.8371V45.8671M25.8665 45.8371V45.8671M25.8665 45.8671V45.8972M25.8665 45.8671V45.8972M25.8665 45.8972V45.9272M25.8665 45.8972V45.9272M25.8665 45.9272V45.9572M25.8665 45.9272V45.9572M25.8665 45.9572V45.9872M25.8665 45.9572V45.9872M25.8665 45.9872V46.0173M25.8665 45.9872V46.0173M25.8665 46.0173V46.0473M25.8665 46.0173V46.0473M25.8665 46.0473V46.0773M25.8665 46.0473V46.0773M25.8665 46.0773V46.1074M25.8665 46.0773V46.1074M25.8665 46.1074V46.1374M25.8665 46.1074V46.1374M25.8665 46.1374V46.1674M25.8665 46.1374V46.1674M25.8665 46.1674V46.1974M25.8665 46.1674V46.1974M25.8665 46.1974V46.2275M25.8665 46.1974V46.2275M25.8665 46.2275V46.2575M25.8665 46.2275V46.2575M25.8665 46.2575V46.2875M25.8665 46.2575V46.2875M25.8665 46.2875V46.3175M25.8665 46.2875V46.3175M25.8665 46.3175V46.3476M25.8665 46.3175V46.3476M25.8665 46.3476V46.3776M25.8665 46.3476V46.3776M25.8665 46.3776V46.4076M25.8665 46.3776V46.4076M25.8665 46.4076V46.4376M25.8665 46.4076V46.4376M25.8665 46.4376V46.4677M25.8665 46.4376V46.4677M25.8665 46.4677V46.4977M25.8665 46.4677V46.4977M25.8665 46.4977V46.5277M25.8665 46.4977V46.5277M25.8665 46.5277V46.5578M25.8665 46.5277V46.5578M25.8665 46.5578V46.5878M25.8665 46.5578V46.5878M25.8665 46.5878V46.6178M25.8665 46.5878V46.6178M25.8665 46.6178V46.6478M25.8665 46.6178V46.6478M25.8665 46.6478V46.6779M25.8665 46.6478V46.6779M25.8665 46.6779V46.7079M25.8665 46.6779V46.7079M25.8665 46.7079V46.7379M25.8665 46.7079V46.7379M25.8665 46.7379V46.7679M25.8665 46.7379V46.7679M25.8665 46.7679V46.798M25.8665 46.7679V46.798M25.8665 46.798V46.828M25.8665 46.798V46.828M25.8665 46.828V46.858M25.8665 46.828V46.858M25.8665 46.858V46.8881M25.8665 46.858V46.8881M25.8665 46.8881V46.9181M25.8665 46.8881V46.9181M25.8665 46.9181V46.9481M25.8665 46.9181V46.9481M25.8665 46.9481V46.9781M25.8665 46.9481V46.9781M25.8665 46.9781V47.0082M25.8665 46.9781V47.0082M25.8665 47.0082V47.0382M25.8665 47.0082V47.0382M25.8665 47.0382V47.0682M25.8665 47.0382V47.0682M25.8665 47.0682V47.0982M25.8665 47.0682V47.0982M25.8665 47.0982V47.1283M25.8665 47.0982V47.1283M25.8665 47.1283V47.1583M25.8665 47.1283V47.1583M25.8665 47.1583V47.1883M25.8665 47.1583V47.1883M25.8665 47.1883V47.2183M25.8665 47.1883V47.2183M25.8665 47.2183V47.2484M25.8665 47.2183V47.2484M25.8665 47.2484V47.2784M25.8665 47.2484V47.2784M25.8665 47.2784V47.3084M25.8665 47.2784V47.3084M25.8665 47.3084V47.3385M25.8665 47.3084V47.3385M25.8665 47.3385V47.3685M25.8665 47.3385V47.3685M25.8665 47.3685V47.3985M25.8665 47.3685V47.3985M25.8665 47.3985V47.4285M25.8665 47.3985V47.4285M25.8665 47.4285V47.4586M25.8665 47.4285V47.4586M25.8665 47.4586V47.4886M25.8665 47.4586V47.4886M25.8665 47.4886V47.5186M25.8665 47.4886V47.5186M25.8665 47.5186V47.5486M25.8665 47.5186V47.5486M25.8665 47.5486V47.5787M25.8665 47.5486V47.5787M25.8665 47.5787V47.6087M25.8665 47.5787V47.6087M25.8665 47.6087V47.6387M25.8665 47.6087V47.6387M25.8665 47.6387V47.6688M25.8665 47.6387V47.6688M25.8665 47.6688V47.6988M25.8665 47.6688V47.6988M25.8665 47.6988V47.7288M25.8665 47.6988V47.7288M25.8665 47.7288V47.7588M25.8665 47.7288V47.7588M25.8665 47.7588V47.7889M25.8665 47.7588V47.7889M25.8665 47.7889V47.8189M25.8665 47.7889V47.8189M25.8665 47.8189V47.8489M25.8665 47.8189V47.8489M25.8665 47.8489V47.8789M25.8665 47.8489V47.8789M25.8665 47.8789V47.909M25.8665 47.8789V47.909M25.8665 47.909V47.939M25.8665 47.909V47.939M25.8665 47.939V47.969M25.8665 47.939V47.969M25.8665 47.969V47.9991M25.8665 47.969V47.9991M25.8665 47.9991V48.0291M25.8665 47.9991V48.0291M25.8665 48.0291V48.0591M25.8665 48.0291V48.0591M25.8665 48.0591V48.0891M25.8665 48.0591V48.0891M25.8665 48.0891V48.1192M25.8665 48.0891V48.1192M25.8665 48.1192V48.1492M25.8665 48.1192V48.1492M25.8665 48.1492V48.1792M25.8665 48.1492V48.1792M25.8665 48.1792V48.2092M25.8665 48.1792V48.2092M25.8665 48.2092V48.2393M25.8665 48.2092V48.2393M25.8665 48.2393V48.2693M25.8665 48.2393V48.2693M25.8665 48.2693V48.2993M25.8665 48.2693V48.2993M25.8665 48.2993V48.3293M25.8665 48.2993V48.3293M25.8665 48.3293V48.3594M25.8665 48.3293V48.3594M25.8665 48.3594V48.3894M25.8665 48.3594V48.3894M25.8665 48.3894V48.4194M25.8665 48.3894V48.4194M25.8665 48.4194V48.4495M25.8665 48.4194V48.4495M25.8665 48.4495V48.4795M25.8665 48.4495V48.4795M25.8665 48.4795V48.5095M25.8665 48.4795V48.5095M25.8665 48.5095V48.5395M25.8665 48.5095V48.5395M25.8665 48.5395V48.5696M25.8665 48.5395V48.5696M25.8665 48.5696V48.5996M25.8665 48.5696V48.5996M25.8665 48.5996V48.6296M25.8665 48.5996V48.6296M25.8665 48.6296C25.8665 48.6315 25.8665 48.6341 25.8665 48.6373M25.8665 48.6296L25.8665 48.6373M25.8665 48.6373C25.8663 48.6676 25.8659 48.7534 25.8734 48.836M25.8665 48.6373L25.8734 48.836M25.8734 48.836C25.8821 48.9308 25.9076 49.1222 26.0211 49.3246M25.8734 48.836L26.0211 49.3246M26.0211 49.3246C26.3181 49.854 26.8555 49.9148 27.0995 49.9143L26.0211 49.3246ZM25.75 26.2432H49.4V50.0432H25.75V26.2432Z" fill="url(#paint4_linear_1_2650)" stroke="#CCCCCC" stroke-width="2"/>
<defs>
<filter id="filter0_b_1_2650" x="-36.9177" y="-36.9258" width="150.291" height="150.437" filterUnits="userSpaceOnUse" color-interpolation-filters="sRGB">
<feFlood flood-opacity="0" result="BackgroundImageFix"/>
<feGaussianBlur in="BackgroundImageFix" stdDeviation="20"/>
<feComposite in2="SourceAlpha" operator="in" result="effect1_backgroundBlur_1_2650"/>
<feBlend mode="normal" in="SourceGraphic" in2="effect1_backgroundBlur_1_2650" result="shape"/>
</filter>
<linearGradient id="paint0_linear_1_2650" x1="16.5413" y1="-4.2222" x2="23.3817" y2="90.1907" gradientUnits="userSpaceOnUse">
<stop stop-color="#515151" stop-opacity="0.25"/>
<stop offset="1" stop-color="#515151" stop-opacity="0.25"/>
</linearGradient>
<radialGradient id="paint1_radial_1_2650" cx="0" cy="0" r="1" gradientUnits="userSpaceOnUse" gradientTransform="translate(71.4372 166.966) rotate(-111.203) scale(194.523 97.2912)">
<stop stop-color="white"/>
<stop offset="1" stop-color="white" stop-opacity="0"/>
</radialGradient>
<radialGradient id="paint2_radial_1_2650" cx="0" cy="0" r="1" gradientUnits="userSpaceOnUse" gradientTransform="translate(1.42873 -47.9819) rotate(60.0372) scale(146.021 76.3892)">
<stop stop-color="white"/>
<stop offset="1" stop-color="white" stop-opacity="0"/>
</radialGradient>
<radialGradient id="paint3_radial_1_2650" cx="0" cy="0" r="1" gradientUnits="userSpaceOnUse" gradientTransform="translate(38.2276 38.2926) rotate(143.226) scale(52.1102 38.9252)">
<stop stop-color="white"/>
<stop offset="1" stop-color="#151515" stop-opacity="0"/>
</radialGradient>
<linearGradient id="paint4_linear_1_2650" x1="24.75" y1="25.2432" x2="50.4" y2="51.9432" gradientUnits="userSpaceOnUse">
<stop stop-color="#F2F2F2"/>
<stop offset="0.255208" stop-color="#D3D3D3"/>
<stop offset="0.505208" stop-color="#CECDC9"/>
<stop offset="0.744792" stop-color="#848484"/>
<stop offset="1" stop-color="#363636"/>
</linearGradient>
</defs>
</svg>
