<svg width="48" height="48" viewBox="0 0 48 48" fill="none" xmlns="http://www.w3.org/2000/svg">
<g filter="url(#filter0_b_1_2653)">
<path d="M15.2094 38.9872C23.6093 43.8369 34.3227 41.0065 39.1385 32.6653C43.9542 24.3241 41.0487 13.6308 32.6488 8.78114C24.2489 3.93145 13.5355 6.76185 8.71972 15.103C3.90395 23.4442 6.80946 34.1375 15.2094 38.9872Z" fill="url(#paint0_linear_1_2653)" fill-opacity="0.8"/>
<path d="M14.9594 39.4202C23.5955 44.4063 34.616 41.4985 39.5715 32.9153C44.527 24.3321 41.535 13.3342 32.8988 8.34812C24.2626 3.36202 13.2422 6.26984 8.28671 14.853C3.33121 23.4362 6.32318 34.4341 14.9594 39.4202Z" stroke="url(#paint1_radial_1_2653)" stroke-opacity="0.46"/>
<path d="M14.9594 39.4202C23.5955 44.4063 34.616 41.4985 39.5715 32.9153C44.527 24.3321 41.535 13.3342 32.8988 8.34812C24.2626 3.36202 13.2422 6.26984 8.28671 14.853C3.33121 23.4362 6.32318 34.4341 14.9594 39.4202Z" stroke="url(#paint2_radial_1_2653)" stroke-opacity="0.33"/>
<path d="M14.9594 39.4202C23.5955 44.4063 34.616 41.4985 39.5715 32.9153C44.527 24.3321 41.535 13.3342 32.8988 8.34812C24.2626 3.36202 13.2422 6.26984 8.28671 14.853C3.33121 23.4362 6.32318 34.4341 14.9594 39.4202Z" stroke="url(#paint3_radial_1_2653)"/>
</g>
<path d="M24.2135 26.4335C23.8925 25.8599 23.5714 25.2876 23.248 24.717C23.1741 24.7167 23.0979 24.7168 23.0182 24.717L23.0019 24.717C22.7863 24.7174 22.5453 24.7176 22.3004 24.7062M24.2135 26.4335L23.9082 23.8544C23.8677 23.7838 23.7418 23.7275 23.654 23.7245C23.4445 23.7162 23.2348 23.7166 23.0251 23.717C22.7988 23.7174 22.5726 23.7178 22.3469 23.7073C21.3725 23.6623 20.6518 23.221 20.2075 22.3296C19.9127 21.7316 19.6096 21.1388 19.3065 20.5459C19.0791 20.1013 18.8517 19.6567 18.6279 19.2099C18.5465 19.048 18.4527 18.9912 18.2705 18.9912M24.2135 26.4335C24.1329 26.4341 24.0524 26.4348 23.972 26.4355C22.6318 26.4467 21.3231 26.4577 20.0016 26.3957C18.4013 26.3206 17.1895 25.5557 16.3819 24.1328L16.3814 24.132C15.6759 22.8916 15.0046 21.6405 14.3263 20.3764C14.2582 20.2496 14.1901 20.1226 14.1219 19.9956M24.2135 26.4335L12.9866 19.9957C13.365 19.9956 13.7434 19.9956 14.1219 19.9956M22.3004 24.7062L22.3468 23.7084L22.3008 24.7062C22.3007 24.7062 22.3005 24.7062 22.3004 24.7062ZM22.3004 24.7062C21.6719 24.6772 21.0717 24.5168 20.5417 24.1797C20.0097 23.8413 19.6038 23.3601 19.3125 22.7756L19.3105 22.7717L19.3106 22.7717C19.0155 22.1731 18.7213 21.598 18.4234 21.0155C18.2512 20.6788 18.0777 20.3396 17.902 19.992M17.902 19.992C18.0257 19.9918 18.1493 19.9915 18.2729 19.9912L18.2715 19.3892L18.6279 19.2099L18.2715 19.3884L18.2705 18.9912M17.902 19.992C17.8462 19.8815 17.7901 19.7702 17.7338 19.6578L18.2705 19.3889V18.9912M17.902 19.992C16.6416 19.9947 15.3816 19.9954 14.1219 19.9956M18.2705 18.9912C16.708 18.995 15.1458 18.9955 13.5834 18.9956C13.7642 19.3299 13.9434 19.6632 14.1219 19.9956M17.7346 19.6593L18.2705 19.3897V19.9912H18.2704C18.2637 19.9912 18.1264 19.9913 17.9659 19.8933C17.8029 19.7938 17.7392 19.6685 17.7346 19.6593Z" fill="url(#paint4_linear_1_2653)" stroke="#CCCCCC" stroke-width="2"/>
<path d="M25.1877 21.6751C24.8653 21.1046 24.5402 20.5354 24.2155 19.9678H24.2191H24.2306H24.2421H24.2536H24.2651H24.2767H24.2882H24.2997H24.3112H24.3227H24.3342H24.3458H24.3573H24.3688H24.3803H24.3918H24.4033H24.4149H24.4264H24.4379H24.4494H24.4609H24.4724H24.484H24.4955H24.507H24.5185H24.53H24.5415H24.5531H24.5646H24.5761H24.5876H24.5991H24.6107H24.6222H24.6337H24.6452H24.6567H24.6682H24.6798H24.6913H24.7028H24.7143H24.7258H24.7373H24.7489H24.7604H24.7719H24.7834H24.7949H24.8064H24.818H24.8295H24.841H24.8525H24.864H24.8755H24.8871H24.8986H24.9101H24.9216H24.9331H24.9447H24.9562H24.9677H24.9792H24.9907H25.0022H25.0138H25.0253H25.0368H25.0483H25.0598H25.0713H25.0829H25.0944H25.1059H25.1174H25.1289H25.1404H25.152H25.1635H25.175H25.1865H25.198H25.2095H25.2211H25.2326H25.2441H25.2556H25.2671H25.2786H25.2902H25.3017H25.3132H25.3247H25.3362H25.3478H25.3593H25.3708H25.3823H25.3938H25.4053H25.4169H25.4284H25.4399H25.4514H25.4629H25.4744H25.486H25.4975H25.509H25.5205H25.532H25.5435H25.5551H25.5666H25.5781H25.5896H25.6011H25.6126H25.6242H25.6357H25.6472H25.6587H25.6702H25.6818H25.6933H25.7048H25.7163H25.7278H25.7393H25.7509H25.7624H25.7739H25.7854H25.7969H25.8084H25.82H25.8315H25.843H25.8545H25.866H25.8775H25.8891H25.9006H25.9121H25.9236H25.9351H25.9466H25.9582H25.9697H25.9812H25.9927H26.0042H26.0157H26.0273H26.0388H26.0503H26.0618H26.0733H26.0849H26.0964H26.1079H26.1194H26.1309H26.1424H26.154H26.1655H26.177H26.1885H26.2H26.2115H26.2231H26.2346H26.2461H26.2576H26.2691H26.2806H26.2922H26.3037H26.3152H26.3267H26.3382H26.3497H26.3613H26.3728H26.3843H26.3958H26.4073H26.4188H26.4304H26.4419H26.4534H26.4649H26.4764H26.488H26.4995H26.511H26.5225H26.534H26.5455H26.5571H26.5686H26.5801H26.5916H26.6031H26.6146H26.6262H26.6377H26.6492H26.6607H26.6722H26.6837H26.6953H26.7068H26.7183H26.7298H26.7413H26.7528H26.7644H26.7759H26.7874H26.7989H26.8104H26.8219H26.8335H26.845H26.8565H26.868H26.8795H26.8911H26.9026H26.9141H26.9256H26.9371H26.9486H26.9602H26.9717H26.9832H26.9947H27.0062H27.0177H27.0293H27.0408H27.0523H27.0638H27.0753H27.0868H27.0984H27.1099H27.1214H27.1329H27.1444H27.1559H27.1675H27.179H27.1905H27.202H27.2135H27.2251H27.2366H27.2481H27.2596H27.2711H27.2826H27.2942H27.3057H27.3172H27.3287H27.3402H27.3517H27.3633H27.3748H27.3863H27.3978H27.4093H27.4208H27.4324H27.4439H27.4554H27.4669H27.4784H27.4899H27.5015H27.513H27.5245H27.536H27.5475H27.559H27.5706H27.5821H27.5936H27.6051H27.6166H27.6282H27.6397H27.6512H27.6627H27.6742H27.6857H27.6973H27.7088H27.7203H27.7318H27.7433H27.7548H27.7664H27.7779H27.7894H27.8009H27.8124H27.8239H27.8355H27.847H27.8585H27.87H27.8815H27.893H27.9046H27.9161H27.9276H27.9391H27.9506H27.9622H27.9737H27.9852H27.9967H28.0082H28.0197H28.0313H28.0428H28.0543H28.0658H28.0773H28.0888H28.1004H28.1119H28.1234H28.1349H28.1464H28.1579H28.1695H28.181H28.1925H28.204H28.2155H28.227H28.2386H28.2501H28.2616H28.2731H28.2846H28.2961H28.3052C28.6198 20.537 28.9367 21.1052 29.2533 21.672C27.8989 21.672 26.5438 21.6724 25.1877 21.6751Z" fill="url(#paint5_linear_1_2653)" stroke="#CCCCCC" stroke-width="2"/>
<path d="M27.8345 26.432C27.5121 25.8594 27.1862 25.2882 26.8607 24.7191H27.0252C27.2892 24.7191 27.553 24.719 27.8165 24.7189C28.8576 24.7186 29.8958 24.7183 30.9339 24.7231C31.2577 25.2895 31.5786 25.858 31.8992 26.4283C30.5448 26.4279 29.19 26.4275 27.8345 26.432ZM31.2901 23.725C31.3927 23.725 31.5453 23.7793 31.5902 23.8573L26.2886 23.7191H27.0252C27.2885 23.7191 27.5517 23.719 27.815 23.7189C28.9734 23.7185 30.1317 23.7182 31.2901 23.725Z" fill="url(#paint6_linear_1_2653)" stroke="#CCCCCC" stroke-width="2"/>
<defs>
<filter id="filter0_b_1_2653" x="-34.606" y="-34.5889" width="117.07" height="116.946" filterUnits="userSpaceOnUse" color-interpolation-filters="sRGB">
<feFlood flood-opacity="0" result="BackgroundImageFix"/>
<feGaussianBlur in="BackgroundImageFix" stdDeviation="20"/>
<feComposite in2="SourceAlpha" operator="in" result="effect1_backgroundBlur_1_2653"/>
<feBlend mode="normal" in="SourceGraphic" in2="effect1_backgroundBlur_1_2653" result="shape"/>
</filter>
<linearGradient id="paint0_linear_1_2653" x1="21.9706" y1="-0.435031" x2="6.55474" y2="45.3024" gradientUnits="userSpaceOnUse">
<stop stop-color="#515151" stop-opacity="0.25"/>
<stop offset="1" stop-color="#515151" stop-opacity="0.25"/>
</linearGradient>
<radialGradient id="paint1_radial_1_2653" cx="0" cy="0" r="1" gradientUnits="userSpaceOnUse" gradientTransform="translate(14.4747 91.0422) rotate(-88.7571) scale(99.3577 49.9423)">
<stop stop-color="white"/>
<stop offset="1" stop-color="white" stop-opacity="0"/>
</radialGradient>
<radialGradient id="paint2_radial_1_2653" cx="0" cy="0" r="1" gradientUnits="userSpaceOnUse" gradientTransform="translate(23.3745 -24.0334) rotate(82.4502) scale(74.68 39.1623)">
<stop stop-color="white"/>
<stop offset="1" stop-color="white" stop-opacity="0"/>
</radialGradient>
<radialGradient id="paint3_radial_1_2653" cx="0" cy="0" r="1" gradientUnits="userSpaceOnUse" gradientTransform="translate(23.9291 23.8842) rotate(166.158) scale(26.6875 19.9284)">
<stop stop-color="white"/>
<stop offset="1" stop-color="#151515" stop-opacity="0"/>
</radialGradient>
<linearGradient id="paint4_linear_1_2653" x1="12.4675" y1="18.9912" x2="19.8993" y2="31.3395" gradientUnits="userSpaceOnUse">
<stop stop-color="#F2F2F2"/>
<stop offset="0.255208" stop-color="#D3D3D3"/>
<stop offset="0.505208" stop-color="#CECDC9"/>
<stop offset="0.744792" stop-color="#848484"/>
<stop offset="1" stop-color="#363636"/>
</linearGradient>
<linearGradient id="paint5_linear_1_2653" x1="22.5122" y1="18.9678" x2="25.1468" y2="25.2403" gradientUnits="userSpaceOnUse">
<stop stop-color="#F2F2F2"/>
<stop offset="0.255208" stop-color="#D3D3D3"/>
<stop offset="0.505208" stop-color="#CECDC9"/>
<stop offset="0.744792" stop-color="#848484"/>
<stop offset="1" stop-color="#363636"/>
</linearGradient>
<linearGradient id="paint6_linear_1_2653" x1="25.1494" y1="23.7188" x2="27.7916" y2="29.9985" gradientUnits="userSpaceOnUse">
<stop stop-color="#F2F2F2"/>
<stop offset="0.255208" stop-color="#D3D3D3"/>
<stop offset="0.505208" stop-color="#CECDC9"/>
<stop offset="0.744792" stop-color="#848484"/>
<stop offset="1" stop-color="#363636"/>
</linearGradient>
</defs>
</svg>
