<svg width="25" height="25" viewBox="0 0 25 25" fill="none" xmlns="http://www.w3.org/2000/svg">
<path d="M10.4562 5.538L11.1322 6.74939C11.7423 7.8426 11.4974 9.2767 10.5365 10.2376C10.5365 10.2376 9.37104 11.4032 11.4842 13.5165C13.5967 15.629 14.763 14.4642 14.763 14.4642C15.724 13.5032 17.158 13.2583 18.2513 13.8685L19.4626 14.5445C21.1135 15.4657 21.3083 17.7807 19.8574 19.2318C18.9855 20.1037 17.9174 20.7821 16.7367 20.8268C14.7491 20.9022 11.3736 20.3992 7.98751 17.0131C4.6015 13.6271 4.09846 10.2516 4.17382 8.26396C4.21858 7.08324 4.89699 6.01515 5.76888 5.14327C7.21987 3.69228 9.53488 3.88724 10.4562 5.538Z" fill="white"/>
<path d="M13.8121 1.95783C13.8811 1.53191 14.2837 1.24298 14.7096 1.31193C14.736 1.31698 14.8209 1.33283 14.8653 1.34273C14.9542 1.36253 15.0782 1.393 15.2328 1.43803C15.5419 1.52807 15.9738 1.67642 16.4921 1.91405C17.5299 2.38984 18.911 3.22214 20.3441 4.65526C21.7772 6.08839 22.6095 7.46944 23.0853 8.50723C23.323 9.02558 23.4713 9.45746 23.5613 9.7666C23.6063 9.9212 23.6368 10.0452 23.6566 10.1341C23.6665 10.1785 23.6738 10.2142 23.6788 10.2406L23.6848 10.2731C23.7537 10.6989 23.4674 11.1183 23.0415 11.1873C22.6168 11.256 22.2167 10.9684 22.1461 10.5446C22.1439 10.5331 22.1379 10.5026 22.1315 10.4737C22.1186 10.416 22.0964 10.3246 22.0612 10.2036C21.9907 9.96154 21.8683 9.60182 21.6649 9.15841C21.2589 8.27267 20.5287 7.04956 19.2392 5.76011C17.9498 4.47068 16.7267 3.74048 15.841 3.33441C15.3975 3.13111 15.0379 3.00869 14.7958 2.93819C14.6748 2.90295 14.5228 2.86804 14.465 2.8552C14.0411 2.78454 13.7434 2.38254 13.8121 1.95783Z" fill="white"/>
<path fill-rule="evenodd" clip-rule="evenodd" d="M14.0478 5.55121C14.1664 5.13633 14.5988 4.8961 15.0137 5.01463L14.7991 5.76583C15.0137 5.01463 15.0137 5.01463 15.0137 5.01463L15.0152 5.01507L15.0168 5.01553L15.0202 5.01654L15.0283 5.01896L15.049 5.02537C15.0646 5.03039 15.0843 5.03694 15.1076 5.04524C15.1544 5.06184 15.2163 5.08545 15.2921 5.11795C15.4439 5.18299 15.6512 5.28343 15.9059 5.43417C16.4157 5.73592 17.1118 6.23714 17.9295 7.05482C18.7472 7.87251 19.2483 8.56853 19.5501 9.07839C19.7008 9.33309 19.8013 9.54045 19.8664 9.69221C19.8989 9.76804 19.9225 9.82987 19.9391 9.87666C19.9474 9.90004 19.9539 9.91965 19.959 9.93536L19.9653 9.95598L19.9677 9.96405L19.9688 9.96752L19.9692 9.96912C19.9692 9.96912 19.9697 9.97062 19.2184 10.1852L19.9697 9.97062C20.0882 10.3855 19.8479 10.8179 19.4331 10.9364C19.0218 11.0539 18.5931 10.8188 18.4703 10.4104L18.4665 10.3992C18.4609 10.3835 18.4495 10.3527 18.4302 10.3077C18.3917 10.2178 18.3218 10.0707 18.2055 9.87421C17.9732 9.48177 17.5538 8.8888 16.8246 8.15968C16.0955 7.43056 15.5025 7.01108 15.1101 6.77882C14.9137 6.66255 14.7666 6.59265 14.6766 6.55411C14.6316 6.53483 14.6007 6.52333 14.5851 6.51778L14.5739 6.51394C14.1655 6.39114 13.9303 5.96255 14.0478 5.55121Z" fill="white"/>
</svg>
