<svg width="68" height="68" viewBox="0 0 68 68" fill="none" xmlns="http://www.w3.org/2000/svg">
<g filter="url(#filter0_b_1_4146)">
<rect width="66" height="66" rx="33" transform="matrix(-1 0 0 1 67 1)" fill="url(#paint0_linear_1_4146)"/>
<rect x="0.5" y="-0.5" width="67" height="67" rx="33.5" transform="matrix(-1 0 0 1 68 1)" stroke="url(#paint1_radial_1_4146)" stroke-opacity="0.46"/>
<rect x="0.5" y="-0.5" width="67" height="67" rx="33.5" transform="matrix(-1 0 0 1 68 1)" stroke="url(#paint2_radial_1_4146)" stroke-opacity="0.33"/>
<rect x="0.5" y="-0.5" width="67" height="67" rx="33.5" transform="matrix(-1 0 0 1 68 1)" stroke="url(#paint3_radial_1_4146)"/>
</g>
<path d="M31.4559 26.537L32.132 27.7484C32.7421 28.8416 32.4972 30.2757 31.5362 31.2366C31.5362 31.2366 30.3708 32.4023 32.4839 34.5155C34.5964 36.628 35.7628 35.4632 35.7628 35.4632C36.7237 34.5023 38.1578 34.2574 39.251 34.8675L40.4624 35.5435C42.1132 36.4648 42.3081 38.7798 40.8572 40.2308C39.9853 41.1027 38.9172 41.7811 37.7364 41.8258C35.7488 41.9012 32.3733 41.3982 28.9873 38.0122C25.6013 34.6261 25.0982 31.2506 25.1736 29.263C25.2183 28.0823 25.8968 27.0142 26.7686 26.1423C28.2196 24.6913 30.5346 24.8863 31.4559 26.537Z" fill="white"/>
<path d="M34.8119 22.9588C34.8808 22.5329 35.2834 22.244 35.7094 22.3129C35.7357 22.318 35.8206 22.3338 35.865 22.3437C35.954 22.3635 36.0779 22.394 36.2325 22.439C36.5417 22.529 36.9736 22.6774 37.4919 22.915C38.5297 23.3908 39.9107 24.2231 41.3439 25.6562C42.777 27.0894 43.6093 28.4704 44.085 29.5082C44.3227 30.0266 44.4711 30.4584 44.5611 30.7676C44.6061 30.9222 44.6366 31.0462 44.6564 31.135C44.6663 31.1795 44.6736 31.2152 44.6786 31.2415L44.6846 31.274C44.7534 31.6999 44.4672 32.1193 44.0413 32.1883C43.6166 32.257 43.2165 31.9694 43.1458 31.5455C43.1437 31.5341 43.1376 31.5036 43.1313 31.4747C43.1183 31.417 43.0962 31.3255 43.0609 31.2045C42.9904 30.9625 42.868 30.6028 42.6647 30.1594C42.2587 29.2736 41.5284 28.0505 40.239 26.7611C38.9496 25.4717 37.7265 24.7415 36.8407 24.3354C36.3973 24.1321 36.0376 24.0097 35.7955 23.9392C35.6746 23.9039 35.5225 23.869 35.4648 23.8562C35.0408 23.7855 34.7431 23.3835 34.8119 22.9588Z" fill="white"/>
<path fill-rule="evenodd" clip-rule="evenodd" d="M35.0476 26.5512C35.1661 26.1363 35.5985 25.8961 36.0134 26.0146L35.7988 26.7658C36.0134 26.0146 36.0134 26.0146 36.0134 26.0146L36.015 26.0151L36.0165 26.0155L36.02 26.0165L36.0281 26.019L36.0487 26.0254C36.0644 26.0304 36.084 26.0369 36.1074 26.0452C36.1541 26.0618 36.216 26.0854 36.2919 26.1179C36.4436 26.183 36.6509 26.2834 36.9057 26.4342C37.4155 26.7359 38.1115 27.2371 38.9292 28.0548C39.747 28.8725 40.2481 29.5685 40.5499 30.0784C40.7006 30.3331 40.801 30.5404 40.8661 30.6922C40.8986 30.768 40.9223 30.8299 40.9388 30.8767C40.9472 30.9 40.9536 30.9197 40.9587 30.9354L40.9651 30.956L40.9675 30.9641L40.9685 30.9675L40.9689 30.9691C40.9689 30.9691 40.9695 30.9706 40.2182 31.1852L40.9695 30.9706C41.088 31.3855 40.8477 31.8179 40.4329 31.9364C40.0215 32.0539 39.5929 31.8188 39.4701 31.4104L39.4662 31.3992C39.4607 31.3835 39.4492 31.3527 39.43 31.3077C39.3914 31.2178 39.3215 31.0707 39.2053 30.8742C38.973 30.4818 38.5535 29.8888 37.8244 29.1597C37.0953 28.4306 36.5023 28.0111 36.1099 27.7788C35.9134 27.6626 35.7663 27.5927 35.6763 27.5541C35.6313 27.5348 35.6005 27.5233 35.5849 27.5178L35.5736 27.5139C35.1653 27.3911 34.9301 26.9626 35.0476 26.5512Z" fill="white"/>
<defs>
<filter id="filter0_b_1_4146" x="-42" y="-42" width="152" height="152" filterUnits="userSpaceOnUse" color-interpolation-filters="sRGB">
<feFlood flood-opacity="0" result="BackgroundImageFix"/>
<feGaussianBlur in="BackgroundImageFix" stdDeviation="21"/>
<feComposite in2="SourceAlpha" operator="in" result="effect1_backgroundBlur_1_4146"/>
<feBlend mode="normal" in="SourceGraphic" in2="effect1_backgroundBlur_1_4146" result="shape"/>
</filter>
<linearGradient id="paint0_linear_1_4146" x1="6.96482" y1="-5" x2="25.0925" y2="84.4882" gradientUnits="userSpaceOnUse">
<stop stop-color="#0A1121" stop-opacity="0.06"/>
<stop offset="1" stop-color="#161D32" stop-opacity="0"/>
</linearGradient>
<radialGradient id="paint1_radial_1_4146" cx="0" cy="0" r="1" gradientUnits="userSpaceOnUse" gradientTransform="translate(80.7108 152) rotate(-118.588) scale(187.707 93.9946)">
<stop stop-color="white"/>
<stop offset="1" stop-color="white" stop-opacity="0"/>
</radialGradient>
<radialGradient id="paint2_radial_1_4146" cx="0" cy="0" r="1" gradientUnits="userSpaceOnUse" gradientTransform="translate(-12.9217 -45) rotate(52.6443) scale(140.948 73.7783)">
<stop stop-color="white"/>
<stop offset="1" stop-color="white" stop-opacity="0"/>
</radialGradient>
<radialGradient id="paint3_radial_1_4146" cx="0" cy="0" r="1" gradientUnits="userSpaceOnUse" gradientTransform="translate(33 33) rotate(135.957) scale(50.3162 37.5825)">
<stop stop-color="white"/>
<stop offset="1" stop-color="#151515" stop-opacity="0"/>
</radialGradient>
</defs>
</svg>
