<svg width="68" height="68" viewBox="0 0 68 68" fill="none" xmlns="http://www.w3.org/2000/svg">
<g filter="url(#filter0_b_1_2869)">
<rect width="66" height="66" rx="33" transform="matrix(-1 0 0 1 67 1)" fill="url(#paint0_linear_1_2869)"/>
<rect x="0.5" y="-0.5" width="67" height="67" rx="33.5" transform="matrix(-1 0 0 1 68 1)" stroke="url(#paint1_radial_1_2869)" stroke-opacity="0.46"/>
<rect x="0.5" y="-0.5" width="67" height="67" rx="33.5" transform="matrix(-1 0 0 1 68 1)" stroke="url(#paint2_radial_1_2869)" stroke-opacity="0.33"/>
<rect x="0.5" y="-0.5" width="67" height="67" rx="33.5" transform="matrix(-1 0 0 1 68 1)" stroke="url(#paint3_radial_1_2869)"/>
</g>
<path d="M32.0629 36.3281L31.7651 40.2798C32.1911 40.2798 32.3756 40.1071 32.5969 39.8998L34.5941 38.0987L38.7326 40.9584C39.4916 41.3576 40.0264 41.1474 40.2311 40.2996L42.9476 28.289L42.9484 28.2883C43.1891 27.2296 42.5426 26.8156 41.8031 27.0753L25.8356 32.8436C24.7459 33.2427 24.7624 33.8159 25.6504 34.0756L29.7326 35.2737L39.2149 29.6753C39.6611 29.3965 40.0669 29.5507 39.7331 29.8296L32.0629 36.3281Z" fill="white"/>
<defs>
<filter id="filter0_b_1_2869" x="-42" y="-42" width="152" height="152" filterUnits="userSpaceOnUse" color-interpolation-filters="sRGB">
<feFlood flood-opacity="0" result="BackgroundImageFix"/>
<feGaussianBlur in="BackgroundImageFix" stdDeviation="21"/>
<feComposite in2="SourceAlpha" operator="in" result="effect1_backgroundBlur_1_2869"/>
<feBlend mode="normal" in="SourceGraphic" in2="effect1_backgroundBlur_1_2869" result="shape"/>
</filter>
<linearGradient id="paint0_linear_1_2869" x1="6.96482" y1="-5" x2="25.0925" y2="84.4882" gradientUnits="userSpaceOnUse">
<stop stop-color="#0A1121" stop-opacity="0.06"/>
<stop offset="1" stop-color="#161D32" stop-opacity="0"/>
</linearGradient>
<radialGradient id="paint1_radial_1_2869" cx="0" cy="0" r="1" gradientUnits="userSpaceOnUse" gradientTransform="translate(80.7108 152) rotate(-118.588) scale(187.707 93.9946)">
<stop stop-color="white"/>
<stop offset="1" stop-color="white" stop-opacity="0"/>
</radialGradient>
<radialGradient id="paint2_radial_1_2869" cx="0" cy="0" r="1" gradientUnits="userSpaceOnUse" gradientTransform="translate(-12.9217 -45) rotate(52.6443) scale(140.948 73.7783)">
<stop stop-color="white"/>
<stop offset="1" stop-color="white" stop-opacity="0"/>
</radialGradient>
<radialGradient id="paint3_radial_1_2869" cx="0" cy="0" r="1" gradientUnits="userSpaceOnUse" gradientTransform="translate(33 33) rotate(135.957) scale(50.3162 37.5825)">
<stop stop-color="white"/>
<stop offset="1" stop-color="#151515" stop-opacity="0"/>
</radialGradient>
</defs>
</svg>
