<svg width="60" height="60" viewBox="0 0 60 60" fill="none" xmlns="http://www.w3.org/2000/svg">
<g filter="url(#filter0_b_1_4133)">
<path d="M60 29.9999C60 46.5685 46.5685 60 29.9999 60C13.4315 60 0 46.5685 0 29.9999C0 13.4315 13.4315 0 29.9999 0C46.5685 0 60 13.4315 60 29.9999Z" fill="url(#paint0_linear_1_4133)" fill-opacity="0.8"/>
<path d="M59.5 29.9999C59.5 46.2924 46.2924 59.5 29.9999 59.5C13.7076 59.5 0.5 46.2924 0.5 29.9999C0.5 13.7076 13.7076 0.5 29.9999 0.5C46.2924 0.5 59.5 13.7076 59.5 29.9999Z" stroke="url(#paint1_radial_1_4133)" stroke-opacity="0.46"/>
<path d="M59.5 29.9999C59.5 46.2924 46.2924 59.5 29.9999 59.5C13.7076 59.5 0.5 46.2924 0.5 29.9999C0.5 13.7076 13.7076 0.5 29.9999 0.5C46.2924 0.5 59.5 13.7076 59.5 29.9999Z" stroke="url(#paint2_radial_1_4133)" stroke-opacity="0.33"/>
<path d="M59.5 29.9999C59.5 46.2924 46.2924 59.5 29.9999 59.5C13.7076 59.5 0.5 46.2924 0.5 29.9999C0.5 13.7076 13.7076 0.5 29.9999 0.5C46.2924 0.5 59.5 13.7076 59.5 29.9999Z" stroke="url(#paint3_radial_1_4133)"/>
</g>
<path d="M22.2083 19.0431C22.2083 21.3003 24.7252 23.6781 26.8016 25.2556C27.9671 26.141 28.5497 26.5837 29.4999 26.5837C30.4502 26.5837 31.0329 26.141 32.1983 25.2556C34.2746 23.6781 36.7916 21.3004 36.7916 19.0431C36.7916 14.9741 32.781 13.455 29.4999 16.5982C26.2188 13.455 22.2083 14.9741 22.2083 19.0431Z" fill="white"/>
<path d="M21.129 43.1914H20.7499C19.375 43.1914 18.6875 43.1914 18.2604 42.7643C17.8333 42.3371 17.8333 41.6497 17.8333 40.2748V38.6531C17.8333 37.897 17.8333 37.519 18.0275 37.1813C18.2217 36.8436 18.5147 36.6733 19.1007 36.3325C22.9587 34.0885 28.4375 32.8255 32.0944 35.0065C32.34 35.1531 32.5611 35.33 32.7498 35.542C33.5637 36.4563 33.5045 37.836 32.5665 38.6547C32.3683 38.8275 32.1573 38.9588 31.9447 39.0043C32.1194 38.984 32.2868 38.9608 32.4466 38.9353C33.7758 38.7232 34.8914 38.013 35.9128 37.2414L38.5483 35.2507C39.4774 34.5488 40.8564 34.5486 41.7856 35.2502C42.6223 35.882 42.8781 36.9221 42.3491 37.7698C41.7324 38.7585 40.8634 40.0233 40.0289 40.7961C39.1933 41.5701 37.9494 42.261 36.9338 42.7512C35.8087 43.2942 34.5659 43.6071 33.3016 43.8118C30.7378 44.2267 28.0658 44.1634 25.5279 43.6406C24.0932 43.345 22.6032 43.1914 21.129 43.1914Z" fill="white"/>
<defs>
<filter id="filter0_b_1_4133" x="-40" y="-40" width="140" height="140" filterUnits="userSpaceOnUse" color-interpolation-filters="sRGB">
<feFlood flood-opacity="0" result="BackgroundImageFix"/>
<feGaussianBlur in="BackgroundImageFix" stdDeviation="20"/>
<feComposite in2="SourceAlpha" operator="in" result="effect1_backgroundBlur_1_4133"/>
<feBlend mode="normal" in="SourceGraphic" in2="effect1_backgroundBlur_1_4133" result="shape"/>
</filter>
<linearGradient id="paint0_linear_1_4133" x1="6.33166" y1="-4.54545" x2="22.8113" y2="76.8075" gradientUnits="userSpaceOnUse">
<stop stop-color="#515151" stop-opacity="0.25"/>
<stop offset="1" stop-color="#515151" stop-opacity="0.25"/>
</linearGradient>
<radialGradient id="paint1_radial_1_4133" cx="0" cy="0" r="1" gradientUnits="userSpaceOnUse" gradientTransform="translate(73.3735 138.182) rotate(-118.588) scale(170.643 85.4497)">
<stop stop-color="white"/>
<stop offset="1" stop-color="white" stop-opacity="0"/>
</radialGradient>
<radialGradient id="paint2_radial_1_4133" cx="0" cy="0" r="1" gradientUnits="userSpaceOnUse" gradientTransform="translate(-11.747 -40.9091) rotate(52.6443) scale(128.134 67.0712)">
<stop stop-color="white"/>
<stop offset="1" stop-color="white" stop-opacity="0"/>
</radialGradient>
<radialGradient id="paint3_radial_1_4133" cx="0" cy="0" r="1" gradientUnits="userSpaceOnUse" gradientTransform="translate(30 30) rotate(135.957) scale(45.742 34.1659)">
<stop stop-color="white"/>
<stop offset="1" stop-color="#151515" stop-opacity="0"/>
</radialGradient>
</defs>
</svg>
