<svg width="60" height="60" viewBox="0 0 60 60" fill="none" xmlns="http://www.w3.org/2000/svg">
<g filter="url(#filter0_b_1_4129)">
<path d="M60 29.9999C60 46.5685 46.5685 60 29.9999 60C13.4315 60 0 46.5685 0 29.9999C0 13.4315 13.4315 0 29.9999 0C46.5685 0 60 13.4315 60 29.9999Z" fill="url(#paint0_linear_1_4129)" fill-opacity="0.8"/>
<path d="M59.5 29.9999C59.5 46.2924 46.2924 59.5 29.9999 59.5C13.7076 59.5 0.5 46.2924 0.5 29.9999C0.5 13.7076 13.7076 0.5 29.9999 0.5C46.2924 0.5 59.5 13.7076 59.5 29.9999Z" stroke="url(#paint1_radial_1_4129)" stroke-opacity="0.46"/>
<path d="M59.5 29.9999C59.5 46.2924 46.2924 59.5 29.9999 59.5C13.7076 59.5 0.5 46.2924 0.5 29.9999C0.5 13.7076 13.7076 0.5 29.9999 0.5C46.2924 0.5 59.5 13.7076 59.5 29.9999Z" stroke="url(#paint2_radial_1_4129)" stroke-opacity="0.33"/>
<path d="M59.5 29.9999C59.5 46.2924 46.2924 59.5 29.9999 59.5C13.7076 59.5 0.5 46.2924 0.5 29.9999C0.5 13.7076 13.7076 0.5 29.9999 0.5C46.2924 0.5 59.5 13.7076 59.5 29.9999Z" stroke="url(#paint3_radial_1_4129)"/>
</g>
<path d="M29.5001 26.5837C32.7217 26.5837 35.3334 23.972 35.3334 20.7503C35.3334 17.5287 32.7217 14.917 29.5001 14.917C26.2784 14.917 23.6667 17.5287 23.6667 20.7503C23.6667 23.972 26.2784 26.5837 29.5001 26.5837Z" fill="white"/>
<path d="M15.9781 20.485C15.8316 19.899 15.2378 19.5427 14.6517 19.6892C14.0657 19.8357 13.7094 20.4295 13.8559 21.0155L14.413 23.2437C15.4407 27.3547 18.5568 30.5934 22.5733 31.8026V38.326C22.5732 39.6364 22.5732 40.7289 22.6898 41.5964C22.8129 42.5119 23.0836 43.3385 23.7479 44.0028C24.4121 44.6669 25.2387 44.9377 26.1542 45.0608C27.0216 45.1774 28.1142 45.1774 29.4245 45.1773H29.5762C30.8865 45.1774 31.9791 45.1774 32.8465 45.0608C33.7621 44.9377 34.5885 44.6669 35.2528 44.0028C35.917 43.3385 36.1879 42.5119 36.3109 41.5964C36.4275 40.7289 36.4275 39.6364 36.4275 38.3262V32.2114C37.8582 32.6378 38.9512 33.881 39.1335 35.4314L40.0807 43.4823C40.1513 44.0821 40.6948 44.5113 41.2948 44.4407C41.8947 44.3701 42.3238 43.8266 42.2532 43.2266L41.3062 35.1759C40.9497 32.1472 38.3831 29.8648 35.3337 29.8648H23.7903C20.2269 29.0284 17.4245 26.2704 16.5351 22.7131L15.9781 20.485Z" fill="white"/>
<defs>
<filter id="filter0_b_1_4129" x="-40" y="-40" width="140" height="140" filterUnits="userSpaceOnUse" color-interpolation-filters="sRGB">
<feFlood flood-opacity="0" result="BackgroundImageFix"/>
<feGaussianBlur in="BackgroundImageFix" stdDeviation="20"/>
<feComposite in2="SourceAlpha" operator="in" result="effect1_backgroundBlur_1_4129"/>
<feBlend mode="normal" in="SourceGraphic" in2="effect1_backgroundBlur_1_4129" result="shape"/>
</filter>
<linearGradient id="paint0_linear_1_4129" x1="6.33166" y1="-4.54545" x2="22.8113" y2="76.8075" gradientUnits="userSpaceOnUse">
<stop stop-color="#515151" stop-opacity="0.25"/>
<stop offset="1" stop-color="#515151" stop-opacity="0.25"/>
</linearGradient>
<radialGradient id="paint1_radial_1_4129" cx="0" cy="0" r="1" gradientUnits="userSpaceOnUse" gradientTransform="translate(73.3735 138.182) rotate(-118.588) scale(170.643 85.4497)">
<stop stop-color="white"/>
<stop offset="1" stop-color="white" stop-opacity="0"/>
</radialGradient>
<radialGradient id="paint2_radial_1_4129" cx="0" cy="0" r="1" gradientUnits="userSpaceOnUse" gradientTransform="translate(-11.747 -40.9091) rotate(52.6443) scale(128.134 67.0712)">
<stop stop-color="white"/>
<stop offset="1" stop-color="white" stop-opacity="0"/>
</radialGradient>
<radialGradient id="paint3_radial_1_4129" cx="0" cy="0" r="1" gradientUnits="userSpaceOnUse" gradientTransform="translate(30 30) rotate(135.957) scale(45.742 34.1659)">
<stop stop-color="white"/>
<stop offset="1" stop-color="#151515" stop-opacity="0"/>
</radialGradient>
</defs>
</svg>
