<svg width="60" height="60" viewBox="0 0 60 60" fill="none" xmlns="http://www.w3.org/2000/svg">
<g filter="url(#filter0_b_1_4131)">
<path d="M60 29.9999C60 46.5685 46.5685 60 29.9999 60C13.4315 60 0 46.5685 0 29.9999C0 13.4315 13.4315 0 29.9999 0C46.5685 0 60 13.4315 60 29.9999Z" fill="url(#paint0_linear_1_4131)" fill-opacity="0.8"/>
<path d="M59.5 29.9999C59.5 46.2924 46.2924 59.5 29.9999 59.5C13.7076 59.5 0.5 46.2924 0.5 29.9999C0.5 13.7076 13.7076 0.5 29.9999 0.5C46.2924 0.5 59.5 13.7076 59.5 29.9999Z" stroke="url(#paint1_radial_1_4131)" stroke-opacity="0.46"/>
<path d="M59.5 29.9999C59.5 46.2924 46.2924 59.5 29.9999 59.5C13.7076 59.5 0.5 46.2924 0.5 29.9999C0.5 13.7076 13.7076 0.5 29.9999 0.5C46.2924 0.5 59.5 13.7076 59.5 29.9999Z" stroke="url(#paint2_radial_1_4131)" stroke-opacity="0.33"/>
<path d="M59.5 29.9999C59.5 46.2924 46.2924 59.5 29.9999 59.5C13.7076 59.5 0.5 46.2924 0.5 29.9999C0.5 13.7076 13.7076 0.5 29.9999 0.5C46.2924 0.5 59.5 13.7076 59.5 29.9999Z" stroke="url(#paint3_radial_1_4131)"/>
</g>
<path d="M26.6381 19.7524L27.5845 21.4484C28.4387 22.9789 28.0958 24.9866 26.7505 26.3319C26.7505 26.3319 25.1189 27.9638 28.0773 30.9223C31.0348 33.8798 32.6677 32.2491 32.6677 32.2491C34.013 30.9038 36.0207 30.5609 37.5512 31.415L39.2471 32.3615C41.5583 33.6513 41.8311 36.8923 39.7998 38.9237C38.5792 40.1443 37.0838 41.0942 35.4308 41.1567C32.6482 41.2623 27.9224 40.5581 23.182 35.8176C18.4416 31.0772 17.7373 26.3515 17.8428 23.5688C17.9055 21.9158 18.8553 20.4204 20.0759 19.1998C22.1073 17.1684 25.3483 17.4414 26.6381 19.7524Z" fill="white"/>
<path d="M31.3368 14.7417C31.4334 14.1455 31.997 13.741 32.5933 13.8375C32.6302 13.8446 32.7491 13.8667 32.8112 13.8806C32.9357 13.9083 33.1093 13.951 33.3257 14.014C33.7585 14.1401 34.3632 14.3478 35.0888 14.6805C36.5418 15.3466 38.4752 16.5118 40.4816 18.5181C42.488 20.5245 43.6532 22.458 44.3192 23.9109C44.652 24.6366 44.8597 25.2412 44.9857 25.674C45.0487 25.8905 45.0914 26.064 45.1191 26.1885C45.133 26.2507 45.1432 26.3007 45.1502 26.3376L45.1586 26.3831C45.255 26.9793 44.8543 27.5664 44.258 27.663C43.6634 27.7592 43.1032 27.3566 43.0044 26.7632C43.0013 26.7471 42.9929 26.7044 42.984 26.664C42.9659 26.5832 42.9348 26.4552 42.8855 26.2858C42.7868 25.9469 42.6154 25.4433 42.3308 24.8225C41.7623 23.5825 40.74 21.8702 38.9347 20.0649C37.1296 18.2597 35.4172 17.2375 34.1772 16.6689C33.5564 16.3843 33.0529 16.2129 32.7139 16.1142C32.5446 16.0649 32.3317 16.016 32.2509 15.9981C31.6574 15.8991 31.2406 15.3363 31.3368 14.7417Z" fill="white"/>
<path fill-rule="evenodd" clip-rule="evenodd" d="M31.6666 19.7721C31.8326 19.1913 32.4379 18.8549 33.0188 19.0209L32.7184 20.0726C33.0188 19.0209 33.0188 19.0209 33.0188 19.0209L33.021 19.0215L33.0232 19.0221L33.028 19.0235L33.0393 19.0269L33.0682 19.0359C33.0901 19.0429 33.1177 19.0521 33.1503 19.0637C33.2158 19.087 33.3024 19.12 33.4086 19.1655C33.6211 19.2566 33.9113 19.3972 34.268 19.6082C34.9817 20.0307 35.9562 20.7324 37.1009 21.8771C38.2457 23.0219 38.9473 23.9963 39.3698 24.7101C39.5808 25.0667 39.7214 25.357 39.8126 25.5695C39.8581 25.6756 39.8912 25.7622 39.9144 25.8277C39.926 25.8604 39.9351 25.8879 39.9422 25.9099L39.9511 25.9388L39.9545 25.9501L39.9559 25.9549L39.9565 25.9572C39.9565 25.9572 39.9572 25.9593 38.9055 26.2597L39.9572 25.9593C40.1232 26.5401 39.7868 27.1454 39.206 27.3114C38.6302 27.4759 38.03 27.1467 37.8581 26.575L37.8527 26.5592C37.845 26.5373 37.8289 26.4942 37.802 26.4312C37.748 26.3053 37.6502 26.0993 37.4874 25.8243C37.1622 25.2749 36.5749 24.4447 35.5541 23.4239C34.5334 22.4032 33.7032 21.8159 33.1538 21.4907C32.8788 21.328 32.6729 21.2301 32.5469 21.1761C32.4839 21.1492 32.4407 21.1331 32.4188 21.1253L32.4031 21.1199C31.8314 20.948 31.5021 20.348 31.6666 19.7721Z" fill="white"/>
<defs>
<filter id="filter0_b_1_4131" x="-40" y="-40" width="140" height="140" filterUnits="userSpaceOnUse" color-interpolation-filters="sRGB">
<feFlood flood-opacity="0" result="BackgroundImageFix"/>
<feGaussianBlur in="BackgroundImageFix" stdDeviation="20"/>
<feComposite in2="SourceAlpha" operator="in" result="effect1_backgroundBlur_1_4131"/>
<feBlend mode="normal" in="SourceGraphic" in2="effect1_backgroundBlur_1_4131" result="shape"/>
</filter>
<linearGradient id="paint0_linear_1_4131" x1="6.33166" y1="-4.54545" x2="22.8113" y2="76.8075" gradientUnits="userSpaceOnUse">
<stop stop-color="#515151" stop-opacity="0.25"/>
<stop offset="1" stop-color="#515151" stop-opacity="0.25"/>
</linearGradient>
<radialGradient id="paint1_radial_1_4131" cx="0" cy="0" r="1" gradientUnits="userSpaceOnUse" gradientTransform="translate(73.3735 138.182) rotate(-118.588) scale(170.643 85.4497)">
<stop stop-color="white"/>
<stop offset="1" stop-color="white" stop-opacity="0"/>
</radialGradient>
<radialGradient id="paint2_radial_1_4131" cx="0" cy="0" r="1" gradientUnits="userSpaceOnUse" gradientTransform="translate(-11.747 -40.9091) rotate(52.6443) scale(128.134 67.0712)">
<stop stop-color="white"/>
<stop offset="1" stop-color="white" stop-opacity="0"/>
</radialGradient>
<radialGradient id="paint3_radial_1_4131" cx="0" cy="0" r="1" gradientUnits="userSpaceOnUse" gradientTransform="translate(30 30) rotate(135.957) scale(45.742 34.1659)">
<stop stop-color="white"/>
<stop offset="1" stop-color="#151515" stop-opacity="0"/>
</radialGradient>
</defs>
</svg>
