<svg width="62" height="62" viewBox="0 0 62 62" fill="none" xmlns="http://www.w3.org/2000/svg">
<rect x="1" y="1" width="60" height="60" rx="9" stroke="url(#paint0_linear_1_2739)" stroke-width="2"/>
<path d="M49.8781 40.9209H41.1746V45.413H49.8781V40.9209Z" fill="url(#paint1_linear_1_2739)"/>
<path d="M20.8253 40.9209H12.1218V45.413H20.8253V40.9209Z" fill="url(#paint2_linear_1_2739)"/>
<path d="M50.6282 23.3395C50.1414 22.5086 49.276 22.0124 48.313 22.0124H45.3467L43.3961 16.5869H18.6037L16.6531 22.0124H13.6869C12.7239 22.0124 11.8585 22.5085 11.3718 23.3395C10.885 24.1705 10.8757 25.1679 11.3468 26.0079L12.1218 27.3896V37.4041V38.313H49.8783V37.4041V27.3895L50.6532 26.0078C51.1242 25.1679 51.1149 24.1704 50.6282 23.3395ZM20.4378 19.1954H41.562L43.9164 25.7446H18.0833L20.4378 19.1954ZM23.3026 33.8272H17.6619V31.2188H23.3026V33.8272ZM44.3379 33.8272H38.6971V31.2188H44.3379V33.8272Z" fill="url(#paint3_linear_1_2739)"/>
<defs>
<linearGradient id="paint0_linear_1_2739" x1="-2.30968e-07" y1="31" x2="62" y2="31" gradientUnits="userSpaceOnUse">
<stop stop-color="#1A82B7"/>
<stop offset="1" stop-color="#0030AB"/>
</linearGradient>
<linearGradient id="paint1_linear_1_2739" x1="41.1746" y1="43.167" x2="49.8781" y2="43.167" gradientUnits="userSpaceOnUse">
<stop stop-color="#1A82B7"/>
<stop offset="1" stop-color="#0030AB"/>
</linearGradient>
<linearGradient id="paint2_linear_1_2739" x1="12.1218" y1="43.167" x2="20.8253" y2="43.167" gradientUnits="userSpaceOnUse">
<stop stop-color="#1A82B7"/>
<stop offset="1" stop-color="#0030AB"/>
</linearGradient>
<linearGradient id="paint3_linear_1_2739" x1="11" y1="27.45" x2="50.9999" y2="27.45" gradientUnits="userSpaceOnUse">
<stop stop-color="#1A82B7"/>
<stop offset="1" stop-color="#0030AB"/>
</linearGradient>
</defs>
</svg>
