<svg width="62" height="62" viewBox="0 0 62 62" fill="none" xmlns="http://www.w3.org/2000/svg">
<rect x="1" y="1" width="60" height="60" rx="9" stroke="url(#paint0_linear_1_2680)" stroke-width="2"/>
<g clip-path="url(#clip0_1_2680)">
<path d="M38.4271 24.3484L36.2289 22.3992H32.5937V20.6262H33.763V18.0176H24.4955V20.6262H25.6648V22.3992H21.8801L19.6818 24.3484H16.2174V25.6528V30.8275H13.6087V27.4981H11V36.7657H13.6087V33.4362H16.2174V38.6109V39.9152H21.8801L26.4667 43.982H41.8897V24.3484H38.4271Z" fill="url(#paint1_linear_1_2680)"/>
<path d="M50.01 26.3755L49.6305 25.7402H44.8896V42.5078H49.6305L50.01 41.8725C50.1514 41.636 51.3913 39.4087 51.3913 34.124C51.3913 28.8393 50.1514 26.612 50.01 26.3755Z" fill="url(#paint2_linear_1_2680)"/>
</g>
<defs>
<linearGradient id="paint0_linear_1_2680" x1="-2.30968e-07" y1="31" x2="62" y2="31" gradientUnits="userSpaceOnUse">
<stop stop-color="#1A82B7"/>
<stop offset="1" stop-color="#0030AB"/>
</linearGradient>
<linearGradient id="paint1_linear_1_2680" x1="11" y1="30.9998" x2="41.8897" y2="30.9998" gradientUnits="userSpaceOnUse">
<stop stop-color="#1A82B7"/>
<stop offset="1" stop-color="#0030AB"/>
</linearGradient>
<linearGradient id="paint2_linear_1_2680" x1="44.8896" y1="34.124" x2="51.3913" y2="34.124" gradientUnits="userSpaceOnUse">
<stop stop-color="#1A82B7"/>
<stop offset="1" stop-color="#0030AB"/>
</linearGradient>
<clipPath id="clip0_1_2680">
<rect width="40" height="40" fill="white" transform="translate(11 11)"/>
</clipPath>
</defs>
</svg>
