<svg width="62" height="62" viewBox="0 0 62 62" fill="none" xmlns="http://www.w3.org/2000/svg">
<rect x="1" y="1" width="60" height="60" rx="9" stroke="url(#paint0_linear_1_2693)" stroke-width="2"/>
<g clip-path="url(#clip0_1_2693)">
<path d="M45.1422 16.8578C41.3646 13.0803 36.3423 11 31 11C25.6577 11 20.6354 13.0803 16.8578 16.8578C13.0803 20.6354 11 25.6578 11 31C11 36.3422 13.0803 41.3646 16.8578 45.1422C20.6354 48.9197 25.6577 51 31 51C36.3423 51 41.3646 48.9197 45.1422 45.1422C48.9197 41.3646 51 36.3422 51 31C51 25.6578 48.9197 20.6354 45.1422 16.8578ZM31 17.1932C35.6338 17.1932 39.7416 19.4878 42.2471 23.0003L35.4941 26.8992C34.3802 25.6795 32.778 24.913 31 24.913C29.222 24.913 27.6198 25.6795 26.5059 26.8992L19.7529 23.0003C22.2584 19.4878 26.3662 17.1932 31 17.1932ZM29.6956 44.7448C22.692 44.0854 17.1932 38.1732 17.1932 31C17.1932 28.9521 17.642 27.0072 18.4454 25.2577L25.1991 29.157C25.0138 29.7387 24.913 30.3577 24.913 31C24.913 33.9086 26.9641 36.3459 29.6956 36.9448V44.7448ZM27.5217 31C27.5217 29.0821 29.082 27.5217 31 27.5217C32.9179 27.5217 34.4783 29.082 34.4783 31C34.4783 32.9179 32.918 34.4783 31 34.4783C29.0821 34.4783 27.5217 32.9179 27.5217 31ZM32.3044 44.7448V36.9448C35.0359 36.3459 37.087 33.9086 37.087 31C37.087 30.3577 36.9863 29.7387 36.8009 29.157L43.5546 25.2577C44.358 27.0073 44.8068 28.9522 44.8068 31C44.8068 38.1732 39.308 44.0854 32.3044 44.7448Z" fill="url(#paint1_linear_1_2693)"/>
</g>
<defs>
<linearGradient id="paint0_linear_1_2693" x1="-2.30968e-07" y1="31" x2="62" y2="31" gradientUnits="userSpaceOnUse">
<stop stop-color="#1A82B7"/>
<stop offset="1" stop-color="#0030AB"/>
</linearGradient>
<linearGradient id="paint1_linear_1_2693" x1="11" y1="31" x2="51" y2="31" gradientUnits="userSpaceOnUse">
<stop stop-color="#1A82B7"/>
<stop offset="1" stop-color="#0030AB"/>
</linearGradient>
<clipPath id="clip0_1_2693">
<rect width="40" height="40" fill="white" transform="translate(11 11)"/>
</clipPath>
</defs>
</svg>
