<svg width="44" height="44" viewBox="0 0 44 44" fill="none" xmlns="http://www.w3.org/2000/svg">
<g clip-path="url(#clip0_1_2616)">
<path d="M38.7126 0.349609H4.6644C2.09601 0.349609 0.013916 2.4317 0.013916 5.0001V39.0483C0.013916 41.6167 2.09601 43.6988 4.6644 43.6988H38.7126C41.281 43.6988 43.3631 41.6167 43.3631 39.0483V5.0001C43.3631 2.4317 41.281 0.349609 38.7126 0.349609Z" fill="url(#paint0_linear_1_2616)"/>
<path fill-rule="evenodd" clip-rule="evenodd" d="M28.581 16.9594C28.7471 16.6272 29.0793 16.6272 29.0793 16.1289C28.4149 16.1289 27.9167 16.6272 27.5845 16.7933L16.4565 23.769L18.6157 30.5786C18.9479 30.2465 18.9479 29.9143 18.9479 29.2499C18.9479 28.9178 19.114 28.2534 19.114 27.9212V26.7586C19.2801 26.5925 19.2801 26.4264 19.2801 26.0942C19.2801 25.9282 19.2801 25.7621 19.2801 25.596C19.4461 25.2638 19.6122 25.4299 19.7783 25.0977C22.2697 22.4403 25.7575 19.4507 28.581 16.9594Z" fill="#CCD8E6"/>
<path fill-rule="evenodd" clip-rule="evenodd" d="M10.9757 21.7757L16.4566 23.7687L28.0828 16.4608C28.415 16.2947 28.7472 16.1286 29.0794 16.1286C29.0794 16.6269 28.415 17.1252 28.0828 17.4573C25.5915 19.6165 21.4393 22.7722 19.2801 25.2635L21.2732 26.7583C21.6054 26.7583 22.4358 27.5888 22.6019 27.7549C22.9341 27.9209 24.2628 28.9175 24.4289 29.2497C24.7611 29.2497 24.7611 29.4157 24.9271 29.5818L26.588 30.7445C27.2524 31.2427 27.9167 32.0732 29.0794 31.2427L32.7333 14.6338C33.2316 11.8103 31.9029 12.3086 30.0759 12.9729L11.4739 20.4469C10.8096 20.7791 10.1452 21.6096 10.9757 21.7757Z" fill="#FEFEFE"/>
<path fill-rule="evenodd" clip-rule="evenodd" d="M18.6157 30.5785L18.7818 30.7446C19.114 30.7446 19.4462 30.5785 19.7783 30.2463L22.6019 27.755C22.4358 27.5889 21.6053 26.7585 21.2731 26.7585L19.2801 25.2637L18.6157 30.5785Z" fill="#ABBDD5"/>
<path fill-rule="evenodd" clip-rule="evenodd" d="M10.9758 21.7754L18.1177 29.0833L16.4568 23.7685L10.9758 21.7754Z" fill="#1A82B7"/>
</g>
<defs>
<linearGradient id="paint0_linear_1_2616" x1="0.000243629" y1="-0.0605461" x2="43.0002" y2="43.9395" gradientUnits="userSpaceOnUse">
<stop stop-color="#20A0E1"/>
<stop offset="1" stop-color="#006EA6"/>
</linearGradient>
<clipPath id="clip0_1_2616">
<rect width="43.3492" height="43.3492" fill="white" transform="translate(0.013916 0.349609)"/>
</clipPath>
</defs>
</svg>
