<svg width="44" height="45" viewBox="0 0 44 45" fill="none" xmlns="http://www.w3.org/2000/svg">
<path d="M38.6987 0.699219H4.65049C2.08209 0.699219 0 2.78131 0 5.34971V39.3979C0 41.9663 2.08209 44.0484 4.65049 44.0484H38.6987C41.2671 44.0484 43.3492 41.9663 43.3492 39.3979V5.34971C43.3492 2.78131 41.2671 0.699219 38.6987 0.699219Z" fill="url(#paint0_linear_1_4145)"/>
<path d="M27.75 24.4395C27.5 24.3145 25.875 23.5645 25.625 23.4395C25.375 23.3145 25.125 23.3145 24.875 23.5645C24.625 23.8145 24.125 24.5645 23.875 24.8145C23.75 25.0645 23.5 25.0645 23.25 24.9395C22.375 24.5645 21.5 24.0645 20.75 23.4395C20.125 22.8145 19.5 22.0645 19 21.3145C18.875 21.0645 19 20.8145 19.125 20.6895C19.25 20.5645 19.375 20.3145 19.625 20.1895C19.75 20.0645 19.875 19.8145 19.875 19.6895C20 19.5645 20 19.3145 19.875 19.1895C19.75 19.0645 19.125 17.5645 18.875 16.9395C18.75 16.0645 18.5 16.0645 18.25 16.0645C18.125 16.0645 17.875 16.0645 17.625 16.0645C17.375 16.0645 17 16.3145 16.875 16.4395C16.125 17.1895 15.75 18.0645 15.75 19.0645C15.875 20.1895 16.25 21.3145 17 22.3145C18.375 24.3145 20.125 25.9395 22.25 26.9395C22.875 27.1895 23.375 27.4395 24 27.5645C24.625 27.8145 25.25 27.8145 26 27.6895C26.875 27.5645 27.625 26.9395 28.125 26.1895C28.375 25.6895 28.375 25.1895 28.25 24.6895C28.25 24.6895 28 24.5645 27.75 24.4395ZM30.875 13.0645C26 8.18945 18.125 8.18945 13.25 13.0645C9.25 17.0645 8.5 23.1895 11.25 28.0645L9.5 34.4395L16.125 32.6895C18 33.6895 20 34.1894 22 34.1894C28.875 34.1894 34.375 28.6895 34.375 21.8145C34.5 18.5645 33.125 15.4395 30.875 13.0645ZM27.5 30.5645C25.875 31.5645 24 32.1895 22 32.1895C20.125 32.1895 18.375 31.6895 16.75 30.8145L16.375 30.5645L12.5 31.5645L13.5 27.8145L13.25 27.4395C10.25 22.4395 11.75 16.1895 16.625 13.0645C21.5 9.93945 27.75 11.5645 30.75 16.3145C33.75 21.1895 32.375 27.5645 27.5 30.5645Z" fill="white"/>
<defs>
<linearGradient id="paint0_linear_1_4145" x1="0" y1="0.699219" x2="43" y2="43.6992" gradientUnits="userSpaceOnUse">
<stop stop-color="#64FF54"/>
<stop offset="1" stop-color="#00DD89"/>
</linearGradient>
</defs>
</svg>
