<svg width="44" height="44" viewBox="0 0 44 44" fill="none" xmlns="http://www.w3.org/2000/svg">
<g clip-path="url(#clip0_1_2627)">
<path d="M38.7124 0H4.66416C2.09577 0 0.0136719 2.08209 0.0136719 4.65049V38.6987C0.0136719 41.2671 2.09577 43.3492 4.66416 43.3492H38.7124C41.2808 43.3492 43.3629 41.2671 43.3629 38.6987V4.65049C43.3629 2.08209 41.2808 0 38.7124 0Z" fill="#FF0000"/>
<g clip-path="url(#clip1_1_2627)">
<path fill-rule="evenodd" clip-rule="evenodd" d="M18.9855 24.7326V17.7179C21.4758 18.8897 23.4045 20.0216 25.6856 21.242C23.8042 22.2854 21.4758 23.4561 18.9855 24.7326ZM32.8638 14.2291C32.4342 13.6632 31.7021 13.2226 30.9226 13.0768C28.6316 12.6417 14.3387 12.6405 12.0489 13.0768C11.4239 13.1939 10.8673 13.4772 10.3892 13.9172C8.37455 15.7871 9.00583 25.8146 9.49143 27.4389C9.69563 28.142 9.95961 28.6491 10.2921 28.9819C10.7204 29.4219 11.3068 29.7249 11.9804 29.8608C13.8668 30.251 23.585 30.4692 30.8827 29.9194C31.5551 29.8022 32.1503 29.4895 32.6197 29.0307C34.4824 27.1683 34.3554 16.5777 32.8638 14.2291Z" fill="white"/>
</g>
</g>
<defs>
<clipPath id="clip0_1_2627">
<rect width="43.3492" height="43.3492" fill="white" transform="translate(0.0136719)"/>
</clipPath>
<clipPath id="clip1_1_2627">
<rect width="25" height="25" fill="white" transform="translate(9 9)"/>
</clipPath>
</defs>
</svg>
